<?xml version="1.0" encoding="UTF-8"?>
<svg id="Layer_2" xmlns="http://www.w3.org/2000/svg" viewBox="0 0 97.73 77.99">
  <defs>
    <style>
      .cls-1 {
        fill: #fff;
      }

      .cls-2 {
        fill: #ef7700;
      }

      .cls-3 {
        fill: #b6dec4;
      }

      .cls-4 {
        fill: #d4effc;
      }

      .cls-5 {
        fill: #ffc10d;
      }
    </style>
  </defs>
  <g id="Layer_1-2" data-name="Layer_1">
    <path class="cls-4" d="M68.96,35c-3.55.97,2.27,8.19-6.41,10.02-8.67,1.83-20.7-11.46-14.85-13.79,5.85-2.34,9.33-8.03,7.85-9.81-1.48-1.78-7.1,3.64-9.46,1.96-2.37-1.68-.89-7.94,2.17-8.13,3.06-.19,9.46-2.06,12.32-4.47,2.86-2.42,7.79,3.17,10.84,3.63,1.3.2,2.71-1.1,3.9-2.65C68.55,4.55,58.69,0,47.7,0c-11.92,0-22.51,5.35-29.27,13.66,3.24-2.14,6.42-3.53,7.65-1.85,2.86,3.92-5.22,8.03-3.65,10.46,1.58,2.43,8.48-1.49,9.27,1.78.79,3.27-7,12.76-11.43,9.98-2.83-1.78-6.91-.1-9.49,1.34.07,6.81,2.19,13.15,5.8,18.49,4.42-3.08,10.72-6.74,13.71-5.06,4.88,2.74,4.65,13.66,13.74,14.76,4.79.58,8.13,3.38,10.22,5.9,7.97-1.35,15.06-5.13,20.38-10.5-3.59-6.39-2.6-24.79-5.67-23.95Z"/>
    <path class="cls-3" d="M75.25,11.72c-1.19,1.55-2.59,2.85-3.89,2.65-3.06-.47-7.98-6.08-10.84-3.65-2.86,2.43-9.27,4.3-12.32,4.49-3.06.19-4.53,6.47-2.17,8.16,2.37,1.69,7.98-3.75,9.46-1.97,1.48,1.78-2,7.5-7.85,9.85-5.85,2.34,6.18,15.69,14.85,13.85,8.67-1.84,2.86-9.09,6.41-10.06,3.07-.84,2.08,17.61,5.66,24.04,6.19-6.29,9.99-14.74,9.99-24.04s-3.51-17.11-9.3-23.31Z"/>
    <path class="cls-3" d="M31.64,24.03c-.79-3.28-7.69.66-9.27-1.78-1.58-2.44,6.51-6.57,3.65-10.51-1.23-1.69-4.41-.29-7.65,1.86,0,0,0,0,0,0-4.81,5.93-7.68,13.36-7.68,21.43,0,.12,0,.25,0,.37,0,0,.01,0,.02,0,0,0,0-.01,0-.02,2.58-1.45,6.66-3.13,9.49-1.34,4.44,2.8,12.22-6.74,11.43-10.02Z"/>
    <path class="cls-3" d="M43.97,63.45c-9.09-1.1-8.86-12.07-13.74-14.82-2.99-1.69-9.27,1.97-13.69,5.06,0,.02,0,.03-.02.05,6.57,9.74,18.04,16.19,31.1,16.19,2.24,0,4.43-.19,6.56-.55-2.09-2.53-5.43-5.34-10.22-5.92Z"/>
    <path class="cls-5" d="M11.31,31.98l-3.09.47c-.7.11-1.18.73-1.07,1.4l.13.78c.11.67.77,1.12,1.47,1.01l.53-.08c.2-.03.4.1.43.3l.1.58c.02.15-.05.29-.18.37-.13.07-.27.14-.43.22-.36.17-.81.29-1.34.38-.51.08-.98.07-1.41-.03-.43-.1-.81-.27-1.15-.51-.33-.24-.62-.55-.84-.92-.22-.37-.38-.81-.46-1.3s-.08-.94.01-1.37c.09-.42.25-.8.49-1.13.24-.33.55-.61.92-.83.38-.22.82-.37,1.33-.45.62-.09,1.15-.09,1.57,0,.23.05.45.13.66.23.57.27,1.28.09,1.63-.42l.61-.88c.21-.3.27-.68.16-1.03-.11-.35-.38-.63-.73-.78-.5-.2-1.03-.34-1.59-.4-.89-.1-1.85-.08-2.85.08-.99.15-1.9.44-2.69.87-.8.43-1.47.98-2,1.64-.53.66-.9,1.43-1.12,2.28-.21.85-.24,1.77-.07,2.74.16.97.49,1.84.97,2.59.48.75,1.09,1.36,1.81,1.83.72.47,1.54.79,2.44.96.89.17,1.85.18,2.84.03.91-.14,1.81-.37,2.66-.68.69-.25,1.36-.58,1.98-.98.41-.26.62-.73.54-1.2l-.8-4.75c-.11-.67-.77-1.12-1.47-1.01Z"/>
    <path class="cls-5" d="M22.05,32.94c.47-.3.83-.68,1.08-1.14.39-.72.52-1.54.36-2.44-.12-.74-.37-1.35-.73-1.81-.36-.47-.82-.82-1.35-1.06-.51-.22-1.09-.35-1.71-.39-.6-.03-1.23,0-1.88.1l-3.86.59c-.7.11-1.18.73-1.07,1.4l1.67,9.94c.11.67.77,1.12,1.47,1.01l1.03-.16c.7-.11,1.18-.73,1.07-1.4l-.51-3.04c-.03-.19.11-.38.31-.41.14-.02.28.03.36.14l2.7,3.45c.29.37.76.55,1.23.48l1.25-.19c.46-.07.84-.36,1-.78s.08-.87-.22-1.21l-2.26-2.55c-.08-.08-.11-.2-.09-.31,0-.05.04-.16.14-.22ZM19.83,29.89c.04.21.02.38-.04.49-.07.13-.17.23-.31.3-.16.09-.35.16-.57.21-.25.05-.5.1-.73.13l-.75.11c-.2.03-.4-.1-.43-.3l-.18-1.06c-.03-.19.11-.38.31-.41l.92-.14c.22-.03.45-.05.68-.06.2,0,.39.02.55.07.14.04.25.11.35.21.09.09.15.24.19.44Z"/>
    <path class="cls-5" d="M27.1,37.46l6.88-1.05c.7-.11,1.18-.73,1.07-1.4l-.13-.78c-.11-.67-.77-1.12-1.47-1.01l-4.22.64c-.2.03-.4-.1-.43-.3l-.13-.78c-.03-.19.11-.38.31-.41l3.6-.55c.7-.11,1.18-.73,1.07-1.4l-.13-.78c-.11-.67-.77-1.12-1.47-1.01l-3.6.55c-.2.03-.4-.1-.43-.3l-.1-.59c-.03-.19.11-.38.31-.41l3.91-.6c.7-.11,1.18-.73,1.07-1.4l-.13-.78c-.11-.67-.77-1.12-1.47-1.01l-6.57,1c-.7.11-1.18.73-1.07,1.4l1.67,9.94c.11.67.77,1.12,1.47,1.01Z"/>
    <path class="cls-5" d="M37.44,35.88l1.03-.16c.7-.11,1.18-.73,1.07-1.4l-1-5.91,5.34,5.9c.29.32.74.48,1.18.41l2.21-.34c.7-.11,1.18-.73,1.07-1.4l-1.67-9.94c-.11-.67-.77-1.12-1.47-1.01l-1.03.16c-.7.11-1.18.73-1.07,1.4l.94,5.72-5.15-5.73c-.29-.32-.74-.48-1.18-.41l-2.34.36c-.7.11-1.18.73-1.07,1.4l1.67,9.94c.11.67.77,1.12,1.47,1.01Z"/>
    <path class="cls-5" d="M54.23,30.11c-.12.1-.27.18-.44.24-.56.21-1.12.23-1.68.07-.16-.04-.31-.1-.45-.17-.61-.31-1.34-.14-1.7.39l-.6.87c-.21.3-.26.67-.16,1.01.1.34.36.63.7.77.43.19.88.33,1.34.41.76.13,1.56.14,2.4.01.66-.1,1.29-.28,1.87-.53.59-.26,1.1-.6,1.51-1.02.42-.42.73-.93.92-1.51.19-.58.23-1.23.11-1.93-.13-.75-.39-1.35-.79-1.77-.39-.41-.84-.71-1.36-.91-.49-.19-1.01-.32-1.55-.38-.49-.06-.96-.12-1.39-.18-.39-.06-.72-.15-.98-.27-.17-.08-.26-.2-.3-.41-.02-.13,0-.23.04-.32.06-.11.14-.2.25-.28.13-.1.28-.17.44-.23.46-.17.88-.2,1.42-.11.13.02.24.05.35.1.55.21,1.19.01,1.53-.48l.55-.8c.22-.31.27-.7.15-1.06-.12-.36-.4-.63-.77-.76-.34-.12-.7-.2-1.06-.25-1.33-.17-2.75,0-3.97.56-.58.26-1.08.61-1.49,1.03-.42.42-.73.92-.93,1.48-.2.57-.24,1.2-.13,1.89.12.72.39,1.3.8,1.71.39.39.85.69,1.37.89.49.19,1.02.32,1.57.39.5.07.98.14,1.42.21.4.07.73.17,1,.31.19.09.28.23.32.44.02.12,0,.22-.03.31-.05.11-.13.2-.24.29Z"/>
    <path class="cls-5" d="M10.49,41.98l-.99.15c-.43.06-.77.38-.86.78l-1.05,4.75c-.04.16-.17.2-.23.21h0c-.06,0-.2.01-.28-.13l-2.54-4.2c-.22-.36-.65-.55-1.07-.49l-1.16.18c-.34.05-.64.26-.79.56-.15.3-.13.65.05.93l5.01,7.97c.22.35.64.54,1.07.47l.93-.14c.42-.06.76-.36.86-.76l2.26-9.08c.08-.32-.01-.66-.25-.91-.24-.24-.59-.36-.93-.31Z"/>
    <path class="cls-5" d="M20.35,48.45l-3.14.48c-.29.04-.57-.15-.62-.43l-.04-.25c-.05-.28.15-.54.45-.59l2.62-.4c.71-.11,1.2-.75,1.09-1.43l-.04-.25c-.11-.68-.79-1.14-1.5-1.03l-2.62.4c-.29.04-.57-.15-.62-.43v-.08c-.06-.28.14-.54.43-.59l2.88-.44c.71-.11,1.2-.75,1.09-1.43l-.04-.25c-.11-.68-.79-1.14-1.5-1.03l-5.14.78c-.71.11-1.2.75-1.09,1.43l1.35,8.02c.11.68.79,1.14,1.5,1.03l5.4-.82c.71-.11,1.2-.75,1.09-1.43l-.04-.25c-.11-.68-.79-1.14-1.5-1.03Z"/>
    <path class="cls-5" d="M29.04,45.43c.4-.25.71-.58.92-.97.33-.61.44-1.31.31-2.07-.11-.63-.31-1.14-.62-1.54-.31-.4-.69-.7-1.14-.9-.43-.19-.92-.3-1.45-.33-.51-.03-1.04,0-1.59.09l-3.27.5c-.59.09-1,.62-.9,1.19l1.42,8.44c.09.56.65.95,1.25.86l.87-.13c.59-.09,1-.62.9-1.19l-.43-2.58c-.03-.16.09-.32.26-.35.12-.02.23.03.3.12l2.29,2.92c.24.31.64.47,1.05.4l1.06-.16c.39-.06.71-.31.85-.66.14-.35.07-.74-.19-1.03l-1.91-2.16c-.06-.07-.09-.17-.08-.26,0-.05.03-.13.12-.19ZM27.16,42.84c.03.18.02.32-.03.41-.06.11-.15.19-.26.26-.14.08-.3.14-.48.18-.22.05-.42.08-.62.11l-.64.1c-.17.03-.34-.09-.36-.25l-.15-.9c-.03-.16.09-.32.26-.35l.78-.12c.18-.03.38-.04.58-.05.17,0,.33.01.47.06.11.03.21.09.3.18.08.08.13.2.16.37Z"/>
    <path class="cls-5" d="M37.8,45.8l-2.47.38c-.26.04-.51-.13-.56-.38l-1.03-6.14c-.11-.65-.76-1.1-1.44-.99l-.54.08c-.68.1-1.15.72-1.04,1.37l1.36,8.12c.11.65.76,1.1,1.44.99l4.73-.72c.68-.1,1.15-.72,1.04-1.37l-.06-.35c-.11-.65-.76-1.1-1.44-.99Z"/>
    <path class="cls-5" d="M46.52,44.47l-3.06.47c-.32.05-.62-.16-.67-.46l-.03-.17c-.05-.3.17-.59.48-.63l2.53-.39c.74-.11,1.24-.77,1.12-1.48l-.03-.17c-.12-.7-.81-1.18-1.55-1.07l-2.53.39c-.32.05-.62-.16-.67-.46s.17-.59.48-.63l2.8-.43c.74-.11,1.24-.77,1.12-1.48l-.03-.17c-.12-.7-.81-1.18-1.55-1.07l-5.06.77c-.74.11-1.24.77-1.12,1.48l1.33,7.94c.12.7.81,1.18,1.55,1.07l5.32-.81c.74-.11,1.24-.77,1.12-1.48l-.03-.17c-.12-.7-.81-1.18-1.55-1.07Z"/>
    <path class="cls-5" d="M57.13,38.96l-2.45.37c-.64.1-1.08.67-.98,1.28l.08.49c.1.61.71,1.03,1.35.93l.35-.05c.18-.03.35.09.38.26l.07.43c.03.16-.05.32-.2.4-.1.05-.2.1-.31.16-.3.14-.69.25-1.14.32-.43.07-.83.06-1.2-.03-.36-.08-.69-.23-.97-.44-.28-.21-.52-.47-.71-.78-.19-.32-.32-.69-.39-1.1s-.06-.8.01-1.16c.07-.36.21-.68.42-.96.2-.28.46-.52.78-.7.32-.19.7-.32,1.13-.38.52-.08.97-.08,1.33,0,.17.04.34.1.51.17.53.24,1.16.08,1.48-.39l.42-.61c.2-.28.25-.64.14-.96-.11-.32-.35-.57-.68-.7-.39-.15-.81-.25-1.24-.3-.75-.09-1.57-.07-2.42.06s-1.61.38-2.29.74c-.68.37-1.25.83-1.7,1.39-.45.56-.77,1.21-.95,1.93-.18.72-.2,1.5-.06,2.33s.42,1.56.82,2.19c.41.63.92,1.16,1.53,1.56.61.4,1.3.67,2.07.82.76.14,1.57.15,2.41.02.78-.12,1.53-.31,2.26-.58.56-.2,1.09-.47,1.6-.78.4-.25.61-.69.53-1.13l-.65-3.89c-.1-.61-.71-1.03-1.35-.93Z"/>
    <path class="cls-5" d="M68.7,37.2l-2.51.38c-.62.09-1.05.65-.95,1.25l.09.56c.1.59.69,1,1.31.9l.34-.05c.2-.03.39.1.43.29l.07.41c.02.15-.05.29-.18.36-.1.05-.21.11-.33.17-.3.14-.69.25-1.14.32-.43.07-.83.06-1.2-.03-.36-.08-.69-.23-.97-.44-.28-.21-.52-.47-.71-.78-.19-.32-.32-.69-.39-1.1s-.06-.8.01-1.16c.07-.36.21-.68.42-.96.2-.28.46-.52.78-.7.32-.19.7-.32,1.13-.38.52-.08.97-.08,1.33,0,.18.04.36.1.52.18.51.24,1.14.07,1.45-.38l.46-.66c.19-.27.24-.61.14-.93-.1-.31-.34-.56-.66-.68-.4-.16-.83-.26-1.28-.31-.75-.09-1.57-.07-2.42.06s-1.61.38-2.29.74c-.68.37-1.25.83-1.7,1.39-.45.56-.77,1.21-.95,1.93-.18.72-.2,1.5-.06,2.33.14.83.42,1.56.82,2.19.41.63.92,1.16,1.53,1.56.61.4,1.3.67,2.07.82.76.14,1.57.15,2.41.02.78-.12,1.53-.31,2.26-.58.56-.21,1.11-.47,1.62-.79.38-.24.59-.67.52-1.09l-.66-3.94c-.1-.59-.69-1-1.31-.9Z"/>
    <path class="cls-5" d="M78.32,39.63l-3.58.54c-.17.03-.34-.09-.36-.25l-.11-.66c-.03-.16.09-.32.26-.35l3.06-.47c.59-.09,1-.62.9-1.19l-.11-.66c-.09-.56-.65-.95-1.25-.86l-3.06.47c-.17.03-.34-.09-.36-.25l-.08-.5c-.03-.16.09-.32.26-.35l3.32-.5c.59-.09,1-.62.9-1.19l-.11-.66c-.09-.56-.65-.95-1.25-.86l-5.58.85c-.59.09-1,.62-.9,1.19l1.42,8.44c.09.56.65.95,1.25.86l5.84-.89c.59-.09,1-.62.9-1.19l-.11-.66c-.09-.56-.65-.95-1.25-.86Z"/>
    <path class="cls-5" d="M86.89,36.62c.4-.25.71-.58.92-.97.33-.61.44-1.31.31-2.07-.11-.63-.31-1.14-.62-1.54-.31-.4-.69-.7-1.14-.9-.43-.19-.92-.3-1.45-.33-.51-.03-1.04,0-1.59.09l-3.27.5c-.59.09-1,.62-.9,1.19l1.42,8.44c.09.56.65.95,1.25.86l.87-.13c.59-.09,1-.62.9-1.19l-.43-2.58c-.03-.16.09-.32.26-.35.12-.02.23.03.3.12l2.29,2.92c.24.31.64.47,1.05.4l1.06-.16c.39-.06.71-.31.85-.66.14-.35.07-.74-.19-1.03l-1.91-2.16c-.06-.07-.09-.17-.08-.26,0-.05.03-.13.12-.19ZM85.01,34.04c.03.18.02.32-.03.41-.06.11-.15.19-.26.26-.14.08-.3.14-.48.18-.22.05-.42.08-.62.11l-.64.1c-.17.03-.34-.09-.36-.25l-.15-.9c-.03-.16.09-.32.26-.35l.78-.12c.18-.03.38-.04.58-.05.17,0,.33.01.47.06.11.03.21.09.3.18.08.08.13.2.16.37Z"/>
    <path class="cls-5" d="M96.81,34.59c-.33-.34-.72-.61-1.16-.77-.42-.16-.86-.27-1.31-.32-.42-.05-.81-.1-1.18-.16-.33-.05-.61-.13-.83-.23-.15-.07-.22-.17-.25-.35-.02-.11,0-.2.03-.27.05-.09.12-.17.21-.24.11-.08.24-.15.37-.2.39-.15.75-.17,1.2-.09.11.02.21.05.29.08.47.18,1.01,0,1.3-.41l.47-.68c.18-.27.23-.59.13-.9-.1-.3-.34-.54-.66-.65-.29-.1-.59-.17-.9-.21-1.13-.15-2.33,0-3.37.48-.49.22-.92.52-1.27.87-.35.36-.62.78-.79,1.26-.17.48-.21,1.02-.11,1.6.1.61.33,1.1.68,1.45.33.33.72.59,1.16.75.42.16.87.27,1.33.33.43.06.83.12,1.2.18.34.06.62.15.85.26.16.08.24.2.27.38.02.1,0,.19-.03.26-.05.09-.11.17-.2.24-.11.08-.23.15-.38.21-.47.18-.95.2-1.43.06-.13-.04-.26-.09-.38-.15-.51-.26-1.14-.12-1.45.33l-.51.74c-.17.25-.22.57-.14.86.09.29.3.53.59.66.37.16.75.28,1.13.34.64.11,1.33.12,2.03,0,.56-.09,1.1-.24,1.58-.45.5-.22.93-.51,1.28-.87.36-.36.62-.79.78-1.28.16-.49.19-1.04.09-1.64-.11-.64-.33-1.14-.67-1.5Z"/>
    <path class="cls-2" d="M8.43,40.79c-1.02.16-2,.15-2.92-.03-.93-.18-1.78-.51-2.52-1-.74-.49-1.37-1.13-1.87-1.9-.49-.77-.83-1.66-1-2.67-.17-1-.14-1.95.08-2.83.22-.88.61-1.68,1.16-2.36.55-.68,1.24-1.25,2.07-1.7.82-.44,1.75-.74,2.77-.9,1.03-.16,2.01-.18,2.92-.08.58.07,1.13.21,1.65.42.42.17.73.5.86.91.13.41.06.85-.19,1.21l-.61.88c-.42.61-1.25.82-1.93.5-.2-.09-.4-.17-.61-.22-.39-.09-.89-.1-1.48,0-.48.07-.9.21-1.25.42-.35.21-.63.46-.85.77-.22.31-.37.66-.45,1.05-.08.4-.09.84-.01,1.29s.22.88.43,1.23c.21.34.47.63.78.86.31.22.67.38,1.06.48.4.09.85.1,1.32.03.51-.08.94-.2,1.28-.36.15-.07.29-.14.41-.21.05-.03.08-.09.07-.15l-.1-.58c-.01-.08-.09-.13-.17-.12l-.53.08c-.82.13-1.6-.41-1.73-1.19l-.13-.78c-.13-.78.43-1.52,1.25-1.65l3.09-.47c.82-.13,1.6.41,1.73,1.19l.8,4.75c.09.55-.16,1.11-.64,1.41-.64.4-1.32.74-2.03,1-.87.32-1.78.55-2.71.69ZM6.25,27.85c-.97.15-1.85.43-2.62.85-.77.42-1.42.95-1.93,1.58-.51.63-.87,1.37-1.08,2.2-.2.82-.23,1.72-.07,2.66.16.94.47,1.79.94,2.51.46.72,1.05,1.32,1.74,1.77.69.45,1.48.76,2.35.93.87.16,1.8.17,2.76.03.9-.14,1.78-.36,2.61-.67.68-.25,1.33-.57,1.94-.96.33-.21.5-.6.44-.98l-.8-4.75c-.09-.55-.63-.92-1.21-.83l-3.09.47c-.58.09-.97.6-.88,1.15l.13.78c.09.55.63.92,1.21.83l.53-.08c.33-.05.64.16.69.47l.1.58c.04.24-.08.47-.3.59-.13.07-.28.15-.44.22-.38.18-.85.31-1.41.4-.54.08-1.04.07-1.5-.04-.46-.11-.87-.29-1.23-.55-.36-.26-.66-.59-.9-.99-.24-.4-.4-.86-.49-1.37-.08-.5-.08-.99.01-1.44.09-.45.27-.86.53-1.21.26-.35.59-.65.99-.89.4-.24.88-.4,1.41-.48.65-.1,1.21-.09,1.66.01.24.06.48.14.71.25.47.22,1.05.07,1.34-.35l.61-.88c.17-.25.22-.56.13-.84-.09-.29-.31-.52-.6-.64-.48-.19-.99-.32-1.53-.39-.87-.1-1.81-.07-2.79.07Z"/>
    <path class="cls-2" d="M23.51,38.19l-1.25.19c-.56.08-1.11-.13-1.45-.56l-2.7-3.45c-.08-.1-.28-.02-.26.11l.51,3.04c.13.78-.43,1.52-1.25,1.65l-1.03.16c-.82.13-1.6-.41-1.73-1.19l-1.67-9.94c-.13-.78.43-1.52,1.25-1.65l3.86-.59c.66-.1,1.31-.14,1.92-.1.65.03,1.26.17,1.8.41.56.25,1.05.63,1.43,1.12.38.5.65,1.14.77,1.91.16.95.03,1.82-.39,2.58-.27.49-.66.9-1.16,1.22h0s-.04.05-.04.07c0,.05,0,.1.04.14l2.26,2.55c.36.4.45.94.26,1.43-.19.49-.63.84-1.18.92ZM17.9,33.89c.22-.03.44.05.58.22l2.7,3.45c.24.3.62.45,1.01.39l1.25-.19c.38-.06.69-.3.82-.64.13-.34.07-.72-.18-1l-2.26-2.55c-.12-.13-.17-.31-.14-.48.01-.09.06-.26.24-.37h0c.44-.28.77-.64,1.01-1.06.37-.68.48-1.45.34-2.31-.12-.7-.35-1.28-.69-1.72-.34-.44-.77-.77-1.26-.99-.48-.21-1.03-.34-1.63-.37-.58-.03-1.2,0-1.83.1l-3.86.59c-.58.09-.97.6-.88,1.15l1.67,9.94c.09.55.63.92,1.21.83l1.03-.16c.58-.09.97-.6.88-1.15l-.51-3.04c-.05-.31.17-.61.5-.66ZM18.22,31.21l-.75.11c-.33.05-.64-.16-.69-.47l-.18-1.06c-.05-.31.17-.61.5-.66l.92-.14c.23-.03.47-.05.71-.06.23,0,.44.02.62.08.17.05.32.14.45.27.12.12.2.31.25.56.04.26.02.47-.06.62-.09.16-.22.29-.39.38-.18.1-.39.18-.64.23-.26.06-.51.1-.74.14ZM17.17,29.56c-.08.01-.13.08-.12.16l.18,1.06c.01.08.09.13.17.12l.75-.11c.23-.03.46-.08.71-.13.19-.04.36-.1.5-.18.1-.06.17-.12.22-.22.03-.05.04-.16.01-.35-.03-.21-.09-.29-.13-.33-.07-.07-.16-.12-.26-.15-.14-.04-.3-.06-.48-.06-.22,0-.44.02-.65.05l-.92.14Z"/>
    <path class="cls-2" d="M34.02,36.59l-6.88,1.05c-.82.13-1.6-.41-1.73-1.19l-1.67-9.94c-.13-.78.43-1.52,1.25-1.65l6.57-1c.82-.13,1.6.41,1.73,1.19l.13.78c.13.78-.43,1.52-1.25,1.65l-3.91.6c-.08.01-.13.08-.12.16l.1.59c.01.08.09.13.17.12l3.6-.55c.82-.13,1.6.41,1.73,1.19l.13.78c.13.78-.43,1.52-1.25,1.65l-3.6.55c-.08.01-.13.08-.12.16l.13.78c.01.08.09.13.17.12l4.22-.64c.82-.13,1.6.41,1.73,1.19l.13.78c.13.78-.43,1.52-1.25,1.65ZM25.06,25.28c-.58.09-.97.6-.88,1.15l1.67,9.94c.09.55.63.92,1.21.83l6.88-1.05c.58-.09.97-.6.88-1.15l-.13-.78c-.09-.55-.63-.92-1.21-.83l-4.22.64c-.33.05-.64-.16-.69-.47l-.13-.78c-.05-.31.17-.61.5-.66l3.6-.55c.58-.09.97-.6.88-1.15l-.13-.78c-.09-.55-.63-.92-1.21-.83l-3.6.55c-.33.05-.64-.16-.69-.47l-.1-.59c-.05-.31.17-.61.5-.66l3.91-.6c.58-.09.97-.6.88-1.15l-.13-.78c-.09-.55-.63-.92-1.21-.83l-6.57,1Z"/>
    <path class="cls-2" d="M47.29,34.58l-2.21.34c-.52.08-1.05-.11-1.39-.48l-4.82-5.32.87,5.16c.13.78-.43,1.52-1.25,1.65l-1.03.16c-.82.13-1.6-.41-1.73-1.19l-1.67-9.94c-.13-.78.43-1.52,1.25-1.65l2.34-.36c.52-.08,1.05.11,1.39.49l4.63,5.15-.82-4.97c-.13-.78.43-1.52,1.25-1.65l1.03-.16c.82-.13,1.6.41,1.73,1.19l1.67,9.94c.13.78-.43,1.52-1.25,1.65ZM38.17,27.67l5.87,6.48c.24.26.61.39.97.34l2.21-.34c.58-.09.97-.6.88-1.15l-1.67-9.94c-.09-.55-.63-.92-1.21-.83l-1.03.16c-.58.09-.97.6-.88,1.15l1.07,6.48-5.67-6.31c-.24-.26-.61-.39-.97-.34l-2.34.36c-.58.09-.97.6-.88,1.15l1.67,9.94c.09.55.63.92,1.21.83l1.03-.16c.58-.09.97-.6.88-1.15l-1.13-6.67Z"/>
    <path class="cls-2" d="M53.66,33.91c-.86.13-1.69.13-2.47-.01-.47-.08-.94-.23-1.39-.42-.4-.18-.7-.51-.82-.91-.12-.4-.05-.84.19-1.19l.6-.87c.43-.62,1.29-.83,2-.47.13.06.26.12.41.16.52.15,1.04.13,1.53-.06.15-.06.28-.13.39-.21.08-.06.14-.13.18-.21.02-.03.03-.08.02-.18-.02-.15-.08-.22-.2-.29-.25-.13-.56-.22-.94-.29-.43-.07-.9-.15-1.41-.21-.56-.07-1.11-.21-1.62-.4-.55-.21-1.04-.52-1.45-.94-.44-.44-.73-1.06-.86-1.82-.12-.72-.07-1.39.14-1.99.21-.59.54-1.12.98-1.56.43-.44.96-.8,1.56-1.07,1.23-.56,2.68-.76,4.1-.58.38.05.75.14,1.11.26.43.15.77.48.91.9.15.42.08.87-.17,1.24l-.55.8c-.4.58-1.16.81-1.81.56-.09-.04-.19-.06-.3-.08-.5-.09-.89-.06-1.29.09-.14.05-.27.12-.39.21-.08.06-.14.12-.18.2-.02.05-.03.11-.02.19.03.16.08.21.17.25.24.11.55.2.92.26.43.07.89.13,1.38.18.56.06,1.1.2,1.61.39.55.21,1.04.54,1.45.97.43.45.71,1.08.85,1.88.12.74.08,1.42-.12,2.03-.2.61-.53,1.14-.97,1.59-.43.44-.96.8-1.58,1.07-.59.26-1.24.45-1.92.55ZM50.85,30.3c-.28.04-.54.19-.71.43l-.6.87c-.17.25-.22.55-.13.83.09.28.3.51.58.64.42.18.85.31,1.28.39.73.13,1.51.13,2.32,0,.64-.1,1.25-.27,1.81-.52.56-.25,1.05-.58,1.44-.97.4-.4.69-.88.87-1.42.18-.55.21-1.16.1-1.83-.12-.71-.37-1.27-.74-1.66-.36-.38-.79-.67-1.28-.86-.47-.18-.97-.3-1.49-.36-.5-.06-.96-.12-1.4-.18-.41-.06-.77-.16-1.05-.29-.24-.11-.37-.29-.42-.57-.03-.17-.01-.32.06-.45.07-.14.18-.26.32-.36.15-.11.31-.2.49-.26.49-.18.95-.22,1.54-.12.14.02.27.06.39.11.45.18.98,0,1.26-.4l.55-.8c.18-.26.22-.58.12-.87-.1-.29-.33-.52-.64-.63-.32-.11-.66-.19-1.01-.24-1.33-.17-2.69.02-3.84.54-.55.25-1.03.58-1.43.98-.39.4-.69.87-.88,1.4-.19.54-.23,1.14-.12,1.79s.36,1.22.74,1.59c.37.37.8.65,1.29.83.48.18.99.31,1.51.37.51.07.99.14,1.43.21.42.07.78.18,1.07.33.25.13.39.32.44.6.03.16,0,.31-.05.43-.07.14-.17.26-.3.36h0c-.14.11-.31.2-.5.28-.59.23-1.21.25-1.83.08-.17-.05-.34-.11-.49-.19-.22-.11-.47-.15-.7-.11Z"/>
    <path class="cls-2" d="M8.59,53.18l-.93.14c-.5.08-1-.14-1.26-.56l-5.01-7.97c-.21-.34-.23-.75-.06-1.11.17-.36.52-.61.93-.67l1.16-.18c.51-.08,1.02.15,1.27.58l2.54,4.2s.03.05.09.04.07-.04.07-.06l1.05-4.75c.11-.48.52-.85,1.02-.92l.99-.15c.41-.06.82.07,1.11.36.28.29.39.69.3,1.08l-2.26,9.07c-.12.47-.51.82-1.01.89ZM2.32,43.38c-.28.04-.52.21-.64.46-.12.25-.1.53.04.76l5.01,7.97c.18.29.52.44.87.39l.93-.14c.34-.05.62-.29.7-.62l2.26-9.07c.07-.27-.01-.54-.21-.74-.19-.2-.48-.29-.76-.25l-.99.15c-.35.05-.63.31-.7.64l-1.05,4.75c-.04.19-.19.32-.39.35s-.38-.05-.48-.22l-2.54-4.2c-.18-.29-.53-.45-.88-.4l-1.16.18Z"/>
    <path class="cls-2" d="M20.83,51.32l-5.4.82c-.82.12-1.59-.41-1.72-1.19l-1.35-8.02c-.13-.78.43-1.51,1.25-1.64l5.14-.78c.82-.12,1.59.41,1.72,1.19l.04.25c.13.78-.43,1.51-1.25,1.64l-2.88.44c-.19.03-.32.2-.29.38v.08c.04.18.22.3.41.27l2.62-.4c.82-.12,1.59.41,1.72,1.19l.04.25c.13.78-.43,1.51-1.25,1.64l-2.62.4c-.19.03-.32.2-.29.38l.04.25c.03.18.21.3.4.27l3.14-.48c.82-.12,1.59.41,1.72,1.19l.04.25c.13.78-.43,1.51-1.25,1.64ZM13.67,41.66c-.61.09-1.02.64-.93,1.22l1.35,8.02c.1.58.67.98,1.28.88l5.4-.82c.61-.09,1.02-.64.93-1.22l-.04-.25c-.1-.58-.67-.98-1.28-.88l-3.14.48c-.4.06-.77-.2-.84-.58l-.04-.25c-.06-.38.21-.74.61-.8l2.62-.4c.61-.09,1.02-.64.93-1.22l-.04-.25c-.1-.58-.67-.98-1.28-.88l-2.62.4c-.4.06-.77-.2-.84-.58v-.08c-.08-.38.2-.74.59-.8l2.88-.44c.61-.09,1.02-.64.93-1.22l-.04-.25c-.1-.58-.67-.98-1.28-.88l-5.14.78Z"/>
    <path class="cls-2" d="M30.28,49.89l-1.06.16c-.47.07-.95-.11-1.23-.48l-2.29-2.92c-.07-.09-.24-.02-.22.09l.43,2.58c.11.66-.37,1.29-1.06,1.4l-.87.13c-.7.11-1.36-.35-1.47-1.01l-1.42-8.44c-.11-.66.37-1.29,1.06-1.4l3.27-.5c.56-.09,1.11-.11,1.63-.09.56.03,1.07.15,1.52.35.48.21.89.53,1.22.95.33.42.55.97.66,1.62.14.81.02,1.54-.33,2.19-.23.42-.56.77-.98,1.04h0s-.03.04-.04.06c0,.04,0,.08.04.12l1.91,2.16c.3.34.38.79.22,1.21-.16.42-.54.71-1,.78ZM25.52,46.24c.19-.03.38.04.49.19l2.29,2.92c.2.26.53.38.86.33l1.06-.16c.32-.05.58-.25.7-.55.11-.29.06-.61-.15-.85l-1.91-2.16c-.1-.11-.14-.26-.12-.4.01-.08.05-.22.2-.32h0c.37-.24.66-.54.86-.9.31-.57.41-1.23.29-1.96-.1-.6-.3-1.09-.59-1.46-.29-.37-.65-.66-1.07-.84-.41-.18-.88-.29-1.38-.31-.5-.03-1.02,0-1.55.08l-3.27.5c-.49.07-.82.51-.74.98l1.42,8.44c.08.46.54.78,1.03.71l.87-.13c.49-.07.82-.51.74-.98l-.43-2.58c-.04-.26.15-.51.42-.56ZM25.79,43.96l-.64.1c-.28.04-.54-.14-.58-.4l-.15-.9c-.04-.26.15-.51.42-.56l.78-.12c.19-.03.4-.05.6-.05.19,0,.37.02.53.06.15.04.27.12.38.23.1.1.17.26.21.47.04.22.02.4-.06.53-.08.14-.19.24-.33.32-.15.09-.33.15-.54.2-.22.05-.43.09-.63.12ZM24.9,42.56c-.07.01-.11.07-.1.14l.15.9c.01.06.07.11.14.1l.64-.1c.19-.03.39-.07.6-.11.16-.04.31-.09.43-.15.08-.05.14-.11.19-.19.02-.04.04-.14.01-.29-.03-.18-.08-.25-.11-.28-.06-.06-.13-.1-.22-.13-.12-.03-.25-.05-.4-.05-.19,0-.38.02-.55.05l-.78.12Z"/>
    <path class="cls-2" d="M38.28,48.67l-4.73.72c-.79.12-1.53-.39-1.66-1.14l-1.36-8.12c-.13-.75.41-1.46,1.2-1.58l.54-.08c.79-.12,1.53.39,1.66,1.14l1.03,6.14c.03.15.18.25.33.23l2.47-.38c.79-.12,1.53.39,1.66,1.14l.06.35c.13.75-.41,1.46-1.2,1.58ZM31.8,38.9c-.58.09-.98.61-.88,1.16l1.36,8.12c.09.55.64.93,1.22.84l4.73-.72c.58-.09.98-.61.88-1.16l-.06-.35c-.09-.55-.64-.93-1.22-.84l-2.47.38c-.37.06-.72-.18-.78-.54l-1.03-6.14c-.09-.55-.64-.93-1.22-.84l-.54.08Z"/>
    <path class="cls-2" d="M47,47.34l-5.32.81c-.84.13-1.64-.42-1.77-1.22l-1.33-7.94c-.13-.8.44-1.56,1.28-1.69l5.06-.77c.84-.13,1.64.42,1.77,1.22l.03.17c.13.8-.44,1.56-1.28,1.69l-2.8.43c-.21.03-.36.22-.32.42s.23.34.45.31l2.53-.39c.84-.13,1.64.42,1.77,1.22l.03.17c.13.8-.44,1.56-1.28,1.69l-2.53.39c-.21.03-.36.22-.32.42l.03.17c.03.2.23.34.45.31l3.06-.47c.84-.13,1.64.42,1.77,1.22l.03.17c.13.8-.44,1.56-1.28,1.69ZM39.92,37.66c-.63.1-1.06.66-.96,1.27l1.33,7.94c.1.6.7,1.01,1.33.92l5.32-.81c.63-.1,1.06-.66.96-1.27l-.03-.17c-.1-.6-.7-1.01-1.33-.92l-3.06.47c-.42.06-.82-.21-.89-.61l-.03-.17c-.07-.4.22-.78.64-.84l2.53-.39c.63-.1,1.06-.66.96-1.27l-.03-.17c-.1-.6-.7-1.01-1.33-.92l-2.53.39c-.42.06-.82-.21-.89-.61s.22-.78.64-.84l2.8-.43c.63-.1,1.06-.66.96-1.27l-.03-.17c-.1-.6-.7-1.01-1.33-.92l-5.06.77Z"/>
    <path class="cls-2" d="M54.77,46.41c-.87.13-1.7.12-2.48-.03-.79-.15-1.51-.43-2.14-.85-.63-.41-1.17-.95-1.59-1.61-.42-.65-.71-1.41-.85-2.26-.14-.85-.12-1.66.06-2.4.19-.75.52-1.42.98-2,.46-.58,1.05-1.06,1.76-1.44.69-.37,1.48-.63,2.35-.76s1.7-.15,2.48-.07c.45.05.88.16,1.29.31.38.14.67.44.79.81.13.38.07.79-.16,1.12l-.42.61c-.38.54-1.1.73-1.72.45-.15-.07-.31-.12-.47-.16-.33-.08-.76-.08-1.26,0-.4.06-.76.18-1.06.36-.29.17-.54.39-.72.65-.19.26-.32.56-.39.89-.07.34-.07.71-.01,1.09.07.39.19.74.37,1.04.17.29.4.54.66.73.26.19.57.33.9.4.34.08.72.09,1.12.03.43-.07.8-.17,1.08-.3.11-.05.21-.1.3-.15.07-.04.11-.12.1-.21l-.07-.43c-.01-.07-.08-.12-.16-.11l-.35.05c-.75.11-1.45-.37-1.57-1.08l-.08-.49c-.12-.71.39-1.38,1.14-1.5l2.45-.37c.75-.11,1.45.37,1.57,1.08l.65,3.89c.09.51-.16,1.02-.62,1.31-.51.32-1.06.59-1.63.79-.74.27-1.51.47-2.3.59ZM52.93,35.43c-.82.12-1.57.37-2.22.72-.66.35-1.21.8-1.64,1.34-.43.54-.74,1.17-.91,1.86-.17.7-.19,1.46-.06,2.26.13.8.4,1.52.8,2.13.39.61.89,1.12,1.48,1.5.59.38,1.26.65,2,.79.74.14,1.52.15,2.34.02.76-.12,1.51-.31,2.22-.57.54-.2,1.07-.46,1.56-.76.33-.21.51-.58.45-.94l-.65-3.89c-.09-.51-.59-.86-1.13-.78l-2.45.37c-.54.08-.9.56-.82,1.07l.08.49c.09.51.59.86,1.13.78l.35-.05c.28-.04.55.14.6.41l.07.43c.04.24-.08.47-.29.59-.1.05-.21.11-.32.16-.32.15-.72.26-1.19.34-.46.07-.88.06-1.27-.03-.39-.09-.74-.25-1.05-.47-.3-.22-.56-.5-.76-.84-.2-.34-.34-.73-.41-1.17-.07-.43-.07-.84.01-1.22.08-.38.23-.73.45-1.03.22-.3.5-.55.84-.76.34-.2.75-.34,1.2-.41.55-.08,1.03-.08,1.41.01.19.04.37.11.54.18.45.2.97.06,1.23-.32l.42-.61c.17-.24.21-.53.12-.81-.09-.27-.29-.48-.56-.58-.38-.14-.78-.24-1.19-.29-.74-.08-1.53-.06-2.37.06Z"/>
    <path class="cls-2" d="M66.31,44.66c-.87.13-1.7.12-2.48-.03-.79-.15-1.51-.43-2.14-.85-.63-.41-1.17-.95-1.59-1.61-.42-.65-.71-1.41-.85-2.26-.14-.85-.12-1.66.06-2.4.19-.75.52-1.42.98-2,.46-.58,1.05-1.06,1.76-1.44.69-.37,1.48-.63,2.35-.76.87-.13,1.7-.15,2.48-.07.46.05.91.16,1.33.33.37.14.65.44.77.8.12.37.06.76-.16,1.08l-.46.66c-.37.53-1.09.72-1.7.44-.16-.07-.32-.13-.49-.17-.33-.08-.76-.08-1.26,0-.4.06-.76.18-1.06.36-.29.17-.54.39-.72.65-.19.26-.32.56-.39.89-.07.34-.07.71-.01,1.09s.19.74.37,1.04c.17.29.4.54.66.73.26.19.57.33.9.4.34.08.72.09,1.12.03.43-.07.8-.17,1.08-.3.12-.05.22-.11.32-.16.07-.04.1-.1.09-.18l-.07-.41c-.02-.09-.11-.16-.21-.14l-.34.05c-.73.11-1.42-.36-1.53-1.06l-.09-.56c-.12-.69.38-1.35,1.11-1.46l2.51-.38c.73-.11,1.42.36,1.53,1.06l.66,3.94c.08.5-.15,1-.6,1.28-.52.32-1.08.6-1.65.81-.74.27-1.51.47-2.3.59ZM64.46,33.68c-.82.12-1.57.37-2.22.72-.66.35-1.21.8-1.64,1.34-.43.54-.74,1.17-.91,1.86-.17.7-.19,1.46-.06,2.26s.4,1.52.8,2.13c.39.61.89,1.12,1.48,1.5.59.38,1.26.65,2,.79.74.14,1.52.15,2.34.02.76-.12,1.51-.31,2.22-.57.55-.2,1.08-.46,1.58-.77.32-.2.49-.56.43-.91l-.66-3.94c-.08-.49-.57-.83-1.09-.75l-2.51.38c-.52.08-.87.54-.79,1.04l.09.56c.08.49.57.83,1.09.75l.34-.05c.31-.05.6.15.65.45l.07.41c.04.23-.07.44-.28.55-.1.06-.22.11-.34.17-.32.15-.72.26-1.19.34-.46.07-.88.06-1.27-.03-.39-.09-.74-.25-1.05-.47-.3-.22-.56-.5-.76-.84-.2-.34-.34-.73-.41-1.17-.07-.43-.07-.84.01-1.22.08-.38.23-.73.45-1.03.22-.3.5-.55.84-.76.34-.2.75-.34,1.2-.41.55-.08,1.03-.08,1.41.01.19.05.38.11.56.19.43.2.95.06,1.21-.31l.46-.66c.16-.23.2-.51.12-.77-.08-.26-.28-.47-.55-.57-.39-.15-.8-.25-1.23-.3-.74-.08-1.53-.06-2.37.06Z"/>
    <path class="cls-2" d="M78.81,42.5l-5.84.89c-.7.11-1.36-.35-1.47-1.01l-1.42-8.44c-.11-.66.37-1.29,1.06-1.4l5.58-.85c.7-.11,1.36.35,1.47,1.01l.11.66c.11.66-.37,1.29-1.06,1.4l-3.32.5c-.07.01-.11.07-.1.14l.08.5c.01.06.07.11.14.1l3.06-.47c.7-.11,1.36.35,1.47,1.01l.11.66c.11.66-.37,1.29-1.06,1.4l-3.06.47c-.07.01-.11.07-.1.14l.11.66c.01.06.07.11.14.1l3.58-.54c.7-.11,1.36.35,1.47,1.01l.11.66c.11.66-.37,1.29-1.06,1.4ZM71.2,32.91c-.49.07-.82.51-.74.98l1.42,8.44c.08.46.54.78,1.03.71l5.84-.89c.49-.07.82-.51.74-.98l-.11-.66c-.08-.46-.54-.78-1.03-.71l-3.58.54c-.28.04-.54-.14-.58-.4l-.11-.66c-.04-.26.15-.51.42-.56l3.06-.47c.49-.07.82-.51.74-.98l-.11-.66c-.08-.46-.54-.78-1.03-.71l-3.06.47c-.28.04-.54-.14-.58-.4l-.08-.5c-.04-.26.15-.51.42-.56l3.32-.5c.49-.07.82-.51.74-.98l-.11-.66c-.08-.46-.54-.78-1.03-.71l-5.58.85Z"/>
    <path class="cls-2" d="M88.13,41.08l-1.06.16c-.47.07-.94-.11-1.23-.48l-2.29-2.92c-.07-.09-.24-.02-.22.09l.43,2.58c.11.66-.37,1.29-1.06,1.4l-.87.13c-.7.11-1.36-.35-1.47-1.01l-1.42-8.44c-.11-.66.37-1.29,1.06-1.4l3.27-.5c.56-.09,1.11-.11,1.63-.09.56.03,1.07.15,1.52.35.48.21.89.53,1.22.95.33.42.55.97.66,1.62.14.81.02,1.54-.33,2.19-.23.42-.56.77-.98,1.04h0s-.03.04-.04.06c0,.04,0,.08.04.12l1.91,2.16c.3.34.38.79.22,1.21-.16.42-.54.71-1,.78ZM83.37,37.43c.19-.03.38.04.49.19l2.29,2.92c.2.26.53.38.86.33l1.06-.16c.32-.05.58-.25.7-.55.11-.29.06-.61-.15-.85l-1.91-2.16c-.1-.11-.14-.26-.12-.4.01-.08.05-.22.2-.32h0c.37-.24.66-.54.86-.9.31-.57.41-1.23.29-1.96-.1-.6-.3-1.09-.59-1.46-.29-.37-.65-.66-1.07-.84-.41-.18-.88-.29-1.38-.31-.5-.03-1.02,0-1.55.08l-3.27.5c-.49.07-.82.51-.74.98l1.42,8.44c.08.46.54.78,1.03.71l.87-.13c.49-.07.82-.51.74-.98l-.43-2.58c-.04-.26.15-.51.42-.56ZM83.64,35.15l-.64.1c-.28.04-.54-.14-.58-.4l-.15-.9c-.04-.26.15-.51.42-.56l.78-.12c.19-.03.4-.05.6-.05.19,0,.37.02.53.06.15.04.27.12.38.23.1.1.17.26.21.47.04.22.02.4-.06.53-.08.14-.19.24-.33.32-.15.09-.33.15-.54.2-.22.05-.43.09-.63.12ZM82.75,33.76c-.07.01-.11.07-.1.14l.15.9c.01.06.07.11.14.1l.64-.1c.19-.03.39-.07.6-.11.16-.04.31-.09.43-.15.08-.05.14-.11.19-.19.02-.04.04-.14.01-.29-.03-.18-.08-.25-.11-.28-.06-.06-.13-.1-.22-.13-.12-.03-.25-.05-.4-.05-.19,0-.38.02-.55.05l-.78.12Z"/>
    <path class="cls-2" d="M93.77,40.48c-.73.11-1.43.11-2.1,0-.4-.07-.8-.19-1.18-.36-.34-.15-.59-.43-.7-.77-.1-.34-.05-.71.16-1.01l.51-.74c.37-.53,1.1-.7,1.7-.4.11.05.22.1.34.13.44.13.88.11,1.3-.05.13-.05.24-.11.33-.18.07-.05.12-.11.15-.18.01-.03.03-.07.01-.16-.02-.12-.07-.19-.17-.24-.21-.11-.48-.19-.8-.24-.37-.06-.77-.12-1.19-.18-.48-.06-.94-.18-1.38-.34-.47-.18-.88-.44-1.23-.8-.37-.38-.62-.9-.73-1.55-.1-.61-.06-1.18.12-1.69.18-.5.46-.95.83-1.33.37-.37.81-.68,1.32-.91,1.04-.47,2.28-.65,3.48-.49.32.04.64.12.94.22.37.13.65.41.77.76.12.36.07.74-.15,1.06l-.47.68c-.34.49-.99.69-1.54.48-.08-.03-.16-.05-.26-.07-.42-.07-.75-.05-1.1.08-.12.04-.23.1-.33.17-.07.05-.12.11-.16.17-.02.04-.02.09-.01.16.02.13.07.18.15.22.2.1.47.17.78.22.36.06.75.11,1.17.15.47.05.93.17,1.36.33.47.18.88.46,1.23.82h0c.36.38.61.92.72,1.59.1.62.07,1.2-.1,1.72-.17.52-.45.97-.82,1.35-.37.37-.82.68-1.34.91-.5.22-1.05.38-1.63.47ZM91.39,37.42c-.24.04-.46.16-.6.37l-.51.74c-.14.21-.18.47-.11.7.07.24.25.44.49.54.35.15.72.27,1.09.33.62.11,1.28.11,1.97,0,.55-.08,1.06-.23,1.53-.44.48-.21.89-.49,1.22-.83.34-.34.58-.75.74-1.21.15-.46.18-.99.09-1.55-.1-.6-.31-1.08-.62-1.41h0c-.31-.32-.67-.57-1.08-.73-.4-.15-.83-.26-1.26-.31-.42-.05-.82-.1-1.19-.16-.35-.05-.65-.14-.89-.25-.2-.1-.32-.25-.36-.49-.02-.15,0-.27.05-.38.06-.12.15-.22.27-.3.13-.09.27-.17.42-.22.42-.16.81-.19,1.31-.1.12.02.23.05.33.09.38.15.83,0,1.07-.34l.47-.68c.15-.22.19-.49.1-.74-.09-.25-.28-.44-.54-.53-.28-.1-.56-.17-.86-.2-1.13-.15-2.28.02-3.26.46-.47.21-.88.49-1.21.83-.33.34-.59.74-.74,1.19-.16.45-.19.96-.1,1.52s.31,1.03.63,1.35c.31.31.68.55,1.09.71.4.15.84.26,1.29.32.43.06.84.12,1.21.18.36.06.66.16.91.28.21.11.33.27.37.51.02.14,0,.26-.05.37-.06.12-.14.22-.26.31-.12.09-.26.17-.43.24-.5.19-1.02.22-1.55.07-.15-.04-.28-.09-.42-.16-.19-.1-.4-.13-.59-.1Z"/>
    <path class="cls-2" d="M58.28,77.81c-.66.04-1.34.07-2,.1l-.04-1.15c.67-.03,1.35-.06,2.01-.1.46-.03.94-.07,1.44-.12l.15,1.14c-.54.05-1.06.1-1.55.13ZM53.45,77.99c-1.19.01-2.38,0-3.53-.03l.08-1.15c1.13.03,2.3.04,3.47.03v1.15ZM62.66,77.31l-.25-1.13c1.08-.17,2.22-.39,3.39-.64l.33,1.11c-1.2.26-2.36.48-3.47.66ZM47.1,77.82c-1.19-.08-2.37-.18-3.51-.31l.22-1.14c1.12.12,2.28.23,3.44.3l-.14,1.14ZM68.87,76.01l-.39-1.09c1.11-.28,2.23-.59,3.31-.92l.46,1.08c-1.1.33-2.24.65-3.38.94ZM40.79,77.15c-1.17-.18-2.33-.38-3.45-.62l.37-1.11c1.09.23,2.23.43,3.36.6l-.28,1.13ZM74.91,74.22l-.52-1.06c1.13-.39,2.2-.79,3.16-1.19l.62,1.02c-.99.41-2.09.83-3.26,1.23ZM34.62,75.91c-1.13-.29-2.25-.61-3.33-.95l.53-1.07c1.05.34,2.14.65,3.24.93l-.44,1.1ZM28.7,74.05c-1.07-.41-2.13-.85-3.14-1.31l.7-1c.98.45,2.01.88,3.05,1.27l-.61,1.04ZM23.14,71.54c-.99-.52-1.95-1.09-2.88-1.67l.87-.91c.89.57,1.83,1.11,2.78,1.62l-.78.97ZM18.09,68.39c-.88-.64-1.73-1.32-2.53-2.01l1.03-.79c.77.67,1.59,1.32,2.45,1.94l-.94.86ZM13.7,64.64c-.75-.76-1.46-1.54-2.1-2.33l1.17-.65c.61.76,1.29,1.51,2.02,2.24l-1.09.73ZM10.14,60.31c-.67-1.02-1.18-1.99-1.43-2.73l1.35-.33c.23.65.71,1.57,1.32,2.5l-1.24.56Z"/>
    <path class="cls-2" d="M89.34,61.41c-.49-.44-1.21-.55-1.83-.28l-11.88,5.13c-.66.29-1.04.91-.97,1.6.07.69.57,1.23,1.27,1.39l4.63,1.05s.08.04.09.08l1.43,4.32c.22.66.83,1.09,1.55,1.11h.02c.71,0,1.33-.4,1.58-1.04l4.52-11.65c.23-.6.07-1.27-.43-1.71ZM76.2,67.71c0-.08.05-.11.07-.12l10.21-4.4-5.5,5.69s-.03,0-.04-.01l-4.63-1.05s-.09-.02-.1-.1ZM83.8,74.26s-.03.09-.12.08c-.09,0-.11-.06-.12-.08l-1.43-4.32s-.02-.04-.02-.06l5.67-5.86-3.98,10.25Z"/>
    <g>
      <path class="cls-2" d="M72.96,13.55c.71,1.99,2.81,3.11,4.68,2.51l1.32-.43c1.87-.61,2.82-2.71,2.11-4.7l-2.26-6.34c-.71-1.98-2.81-3.11-4.68-2.5l-1.31.42c-1.88.61-2.83,2.71-2.12,4.7l2.26,6.34ZM73.28,3.82l1.32-.43c1.19-.39,2.53.33,2.98,1.6l2.26,6.34c.45,1.27-.15,2.61-1.34,3l-1.32.42c-1.19.39-2.53-.33-2.98-1.59l-2.26-6.34c-.45-1.27.15-2.61,1.34-2.99Z"/>
      <path class="cls-2" d="M80.34,19.65l-.67-1.88,1.77-.57c1.85-.6,2.78-2.71,2.07-4.71l-1.48-4.16-1.22.39,1.48,4.16c.45,1.27-.14,2.62-1.32,3l-4.76,1.54c-1.18.38-2.51-.35-2.96-1.62l-1.48-4.16-1.22.39,1.48,4.16c.71,2,2.8,3.14,4.65,2.54l1.77-.57.67,1.88-2.02.65.47,1.32,5.26-1.7-.47-1.32-2.02.65Z"/>
    </g>
    <path class="cls-2" d="M19.73,19.14l-3.6,1.69c-2.19,1.03-4.83.17-5.91-1.91h0c-1.08-2.08-.18-4.6,2.01-5.62l3.6-1.69c2.19-1.03,4.83-.17,5.91,1.91h0c1.08,2.08.18,4.6-2.01,5.62Z"/>
    <g>
      <path class="cls-1" d="M12.17,15.93l1.13-.48c.27-.12.55-.2.82-.24.27-.05.53-.04.78.01.25.05.47.16.68.32.21.16.38.39.52.69.12.26.18.52.17.77-.01.25-.07.47-.19.69s-.27.4-.47.57c-.2.17-.43.31-.68.42l-1.24.52-1.52-3.26ZM14.14,18.21l.39-.17c.17-.07.33-.16.46-.26s.24-.21.31-.33c.07-.12.11-.26.12-.42,0-.15-.04-.32-.12-.51-.07-.16-.17-.29-.29-.38-.12-.09-.25-.15-.39-.19-.14-.03-.29-.04-.46-.01-.16.02-.32.07-.48.13l-.45.19.9,1.94Z"/>
      <path class="cls-1" d="M15.92,14.35l2.33-.99.31.66-1.57.67.28.61,1.49-.63.31.66-1.49.63.31.66,1.66-.7.31.66-2.42,1.02-1.52-3.26Z"/>
    </g>
  </g>
</svg>