<?xml version="1.0" encoding="UTF-8"?>
<svg id="Layer_2" xmlns="http://www.w3.org/2000/svg" viewBox="0 0 253.15 212.3">
  <defs>
    <style>
      .cls-1 {
        fill: #fff;
      }

      .cls-2 {
        fill: #ef7700;
      }

      .cls-3 {
        fill: #b6dec4;
      }

      .cls-4 {
        fill: #d4effc;
      }

      .cls-5 {
        fill: #ffc10d;
      }
    </style>
  </defs>
  <g id="Layer_1-2" data-name="Layer_1">
    <path class="cls-4" d="M178.62,95.28c-9.19,2.63,5.87,22.29-16.6,27.28-22.47,4.99-53.62-31.18-38.47-37.54,15.15-6.36,24.17-21.87,20.34-26.7-3.83-4.83-18.38,9.92-24.51,5.34-6.13-4.58-2.3-21.62,5.62-22.12,7.91-.51,24.51-5.59,31.91-12.18,7.4-6.58,20.17,8.62,28.09,9.89,3.37.54,7.02-2.98,10.1-7.2C177.58,12.39,152.02,0,123.55,0c-30.87,0-58.32,14.57-75.81,37.17,8.39-5.83,16.63-9.62,19.81-5.04,7.4,10.68-13.53,21.87-9.45,28.48,4.09,6.61,21.96-4.07,24,4.83,2.04,8.9-18.13,34.74-29.62,27.16-7.34-4.85-17.91-.28-24.59,3.64.18,18.52,5.67,35.79,15.03,50.34,11.46-8.39,27.76-18.35,35.51-13.77,12.65,7.47,12.06,37.19,35.6,40.18,12.41,1.58,21.06,9.21,26.48,16.07,20.66-3.68,39.01-13.97,52.79-28.59-9.3-17.39-6.72-67.48-14.69-65.2Z"/>
    <path class="cls-3" d="M194.93,31.91c-3.07,4.22-6.71,7.74-10.08,7.2-7.91-1.28-20.68-16.54-28.09-9.93-7.4,6.61-24,11.72-31.91,12.23-7.91.51-11.74,17.62-5.62,22.21,6.13,4.6,20.68-10.21,24.51-5.36,3.83,4.85-5.19,20.43-20.34,26.81-15.15,6.38,16,42.7,38.47,37.69,22.47-5.01,7.4-24.75,16.6-27.39,7.96-2.29,5.39,47.93,14.67,65.43,16.05-17.11,25.88-40.12,25.88-65.42s-9.1-46.57-24.09-63.46Z"/>
    <path class="cls-3" d="M81.96,65.41c-2.04-8.94-19.91,1.79-24-4.85-4.09-6.64,16.85-17.87,9.45-28.6-3.18-4.6-11.42-.79-19.81,5.06,0,0,0,0-.01.01-12.47,16.14-19.9,36.36-19.9,58.34,0,.34,0,.68.01,1.01.02,0,.04,0,.05,0,0-.02,0-.03,0-.05,6.68-3.94,17.25-8.52,24.59-3.66,11.49,7.61,31.66-18.34,29.62-27.27Z"/>
    <path class="cls-3" d="M113.89,172.73c-23.54-3.01-22.95-32.85-35.6-40.34-7.74-4.59-24.01,5.37-35.46,13.78-.01.04-.02.08-.04.13,17.01,26.5,46.73,44.06,80.56,44.06,5.8,0,11.49-.52,17.01-1.51-5.41-6.89-14.07-14.54-26.47-16.12Z"/>
    <path class="cls-5" d="M29.3,87.06l-8.01,1.28c-1.81.29-3.05,2-2.76,3.81l.34,2.13c.29,1.81,2,3.05,3.81,2.76l1.38-.22c.53-.08,1.03.28,1.11.8l.25,1.59c.06.4-.12.8-.48,1-.33.19-.7.39-1.11.59-.93.46-2.09.8-3.47,1.02s-2.54.18-3.66-.09c-1.11-.27-2.11-.74-2.97-1.4-.87-.66-1.6-1.51-2.17-2.51-.58-1.02-.98-2.21-1.19-3.54s-.2-2.55.03-3.72c.23-1.15.65-2.18,1.27-3.08.62-.9,1.42-1.66,2.39-2.26.98-.61,2.14-1.02,3.45-1.23,1.6-.26,2.97-.25,4.07.03.59.15,1.16.36,1.71.63,1.49.74,3.31.25,4.23-1.15l1.59-2.41c.54-.83.69-1.84.41-2.79-.29-.95-.98-1.73-1.9-2.12-1.29-.55-2.68-.92-4.11-1.09-2.3-.28-4.79-.21-7.39.21s-4.92,1.21-6.98,2.37c-2.07,1.17-3.82,2.67-5.18,4.46-1.37,1.79-2.34,3.88-2.89,6.2-.55,2.31-.61,4.82-.19,7.47s1.27,5.02,2.51,7.04c1.25,2.03,2.82,3.71,4.68,4.99,1.86,1.27,3.98,2.16,6.31,2.62,2.31.46,4.79.49,7.37.08,2.37-.38,4.69-1,6.89-1.85,1.8-.69,3.52-1.59,5.13-2.66,1.05-.7,1.6-1.98,1.39-3.26l-2.07-12.92c-.29-1.81-2-3.05-3.81-2.76Z"/>
    <path class="cls-5" d="M57.13,89.65c1.21-.81,2.15-1.86,2.81-3.12,1.02-1.95,1.33-4.19.94-6.64-.32-2.01-.96-3.67-1.9-4.94-.94-1.28-2.12-2.24-3.49-2.88-1.32-.61-2.81-.96-4.44-1.05-1.56-.09-3.19,0-4.86.27l-10,1.6c-1.81.29-3.05,2-2.76,3.81l4.33,27.07c.29,1.81,2,3.05,3.81,2.76l2.66-.42c1.81-.29,3.05-2,2.76-3.81l-1.32-8.27c-.08-.53.28-1.03.8-1.11.36-.06.71.09.93.38l6.99,9.38c.74,1,1.97,1.49,3.19,1.3l3.23-.52c1.2-.19,2.17-.99,2.59-2.13s.21-2.37-.57-3.3l-5.84-6.93c-.19-.23-.28-.53-.24-.83.02-.15.1-.43.37-.61ZM51.38,81.37c.09.58.06,1.03-.1,1.32-.19.35-.45.61-.8.82-.42.25-.91.44-1.48.56-.66.15-1.29.27-1.88.37l-1.95.31c-.53.08-1.03-.28-1.11-.8l-.46-2.88c-.08-.53.28-1.03.8-1.11l2.39-.38c.56-.09,1.16-.14,1.76-.16.53-.01,1.01.05,1.42.18.35.11.65.3.91.57.23.24.39.65.48,1.2Z"/>
    <path class="cls-5" d="M70.21,101.96l17.83-2.85c1.81-.29,3.05-2,2.76-3.81l-.34-2.13c-.29-1.81-2-3.05-3.81-2.76l-10.93,1.75c-.53.08-1.03-.28-1.11-.8l-.34-2.13c-.08-.53.28-1.03.8-1.11l9.34-1.49c1.81-.29,3.05-2,2.76-3.81l-.34-2.13c-.29-1.81-2-3.05-3.81-2.76l-9.34,1.49c-.53.08-1.03-.28-1.11-.8l-.26-1.6c-.08-.53.28-1.03.8-1.11l10.13-1.62c1.81-.29,3.05-2,2.76-3.81l-.34-2.13c-.29-1.81-2-3.05-3.81-2.76l-17.03,2.72c-1.81.29-3.05,2-2.76,3.81l4.33,27.07c.29,1.81,2,3.05,3.81,2.76Z"/>
    <path class="cls-5" d="M96.98,97.68l2.66-.42c1.81-.29,3.05-2,2.76-3.81l-2.59-16.1,13.85,16.06c.75.87,1.92,1.3,3.05,1.12l5.71-.91c1.81-.29,3.05-2,2.76-3.81l-4.33-27.07c-.29-1.81-2-3.05-3.81-2.76l-2.66.42c-1.81.29-3.05,2-2.76,3.8l2.44,15.58-13.34-15.59c-.75-.87-1.92-1.3-3.05-1.12l-6.07.97c-1.81.29-3.05,2-2.76,3.81l4.33,27.07c.29,1.81,2,3.05,3.81,2.76Z"/>
    <path class="cls-5" d="M140.48,81.96c-.32.26-.71.49-1.15.67-1.44.58-2.9.63-4.36.19-.41-.12-.8-.28-1.16-.47-1.57-.83-3.47-.37-4.41,1.07l-1.56,2.38c-.53.81-.68,1.81-.41,2.75.27.93.93,1.7,1.81,2.11,1.13.52,2.29.89,3.46,1.11,1.96.36,4.05.37,6.21.03,1.72-.27,3.35-.76,4.83-1.45,1.52-.71,2.84-1.64,3.91-2.78,1.09-1.16,1.89-2.54,2.38-4.1.49-1.57.59-3.34.28-5.25-.33-2.05-1.02-3.67-2.05-4.81-1-1.11-2.18-1.94-3.53-2.48-1.27-.51-2.62-.86-4.01-1.03-1.28-.15-2.48-.32-3.6-.5-1.01-.16-1.87-.41-2.55-.75-.45-.22-.67-.56-.77-1.13-.06-.34-.02-.63.09-.86.15-.3.36-.55.65-.76.34-.26.73-.47,1.14-.64,1.18-.47,2.29-.54,3.67-.29.32.06.63.15.9.26,1.42.58,3.09.03,3.97-1.31l1.43-2.17c.56-.86.7-1.9.38-2.88-.32-.97-1.05-1.73-2-2.08-.88-.32-1.8-.55-2.74-.68-3.45-.47-7.12.02-10.28,1.53-1.5.72-2.8,1.66-3.87,2.79-1.08,1.15-1.89,2.51-2.4,4.04-.52,1.55-.63,3.28-.33,5.14.32,1.97,1.01,3.54,2.06,4.65,1.01,1.07,2.2,1.88,3.55,2.42,1.28.51,2.65.86,4.06,1.05,1.3.18,2.54.37,3.67.58,1.03.19,1.9.47,2.6.84.48.26.74.63.83,1.21.05.32.02.6-.09.84-.14.3-.34.55-.62.78Z"/>
    <path class="cls-5" d="M27.18,114.27l-2.57.41c-1.1.18-2,1.03-2.23,2.12l-2.73,12.93c-.09.44-.44.54-.59.56h0c-.15.02-.51.04-.73-.35l-6.59-11.43c-.56-.97-1.68-1.5-2.78-1.33l-3.01.48c-.89.14-1.65.72-2.03,1.53-.38.82-.33,1.77.13,2.54l12.97,21.69c.57.96,1.66,1.47,2.76,1.29l2.41-.38c1.09-.17,1.96-.98,2.22-2.06l5.85-24.7c.21-.88-.03-1.81-.65-2.48-.62-.67-1.52-.98-2.42-.83Z"/>
    <path class="cls-5" d="M52.71,131.89l-8.14,1.3c-.76.12-1.48-.4-1.6-1.16l-.11-.67c-.12-.76.4-1.48,1.16-1.6l6.79-1.09c1.85-.3,3.11-2.04,2.82-3.89l-.11-.67c-.3-1.85-2.04-3.11-3.89-2.82l-6.79,1.09c-.76.12-1.48-.4-1.6-1.16l-.04-.22c-.12-.76.4-1.48,1.16-1.6l7.46-1.19c1.85-.3,3.11-2.04,2.82-3.89l-.11-.67c-.3-1.85-2.04-3.11-3.89-2.82l-13.32,2.13c-1.85.3-3.11,2.04-2.82,3.89l3.49,21.83c.3,1.85,2.04,3.11,3.89,2.82l13.99-2.24c1.85-.3,3.11-2.04,2.82-3.89l-.11-.67c-.3-1.85-2.04-3.11-3.89-2.82Z"/>
    <path class="cls-5" d="M75.22,123.65c1.03-.69,1.83-1.58,2.38-2.64.86-1.66,1.13-3.55.8-5.64-.27-1.7-.81-3.11-1.61-4.19-.8-1.08-1.8-1.9-2.96-2.44-1.12-.52-2.39-.82-3.76-.89-1.32-.07-2.71,0-4.12.23l-8.48,1.36c-1.54.25-2.59,1.7-2.34,3.23l3.67,22.97c.25,1.54,1.7,2.59,3.23,2.34l2.26-.36c1.54-.25,2.59-1.7,2.34-3.23l-1.12-7.02c-.07-.45.23-.87.68-.94.3-.05.61.07.79.32l5.93,7.96c.63.85,1.67,1.27,2.71,1.1l2.74-.44c1.02-.16,1.84-.84,2.2-1.8.36-.97.18-2.01-.49-2.8l-4.96-5.88c-.16-.2-.24-.45-.2-.71.02-.13.08-.36.31-.52ZM70.34,116.62c.08.49.05.88-.09,1.12-.16.29-.38.52-.68.69-.35.21-.77.37-1.25.48-.56.13-1.09.23-1.6.31l-1.65.26c-.45.07-.87-.23-.94-.68l-.39-2.44c-.07-.45.23-.87.68-.94l2.03-.32c.48-.08.98-.12,1.5-.13.45-.01.86.04,1.21.15.3.09.55.25.77.49.2.21.33.55.41,1.02Z"/>
    <path class="cls-5" d="M97.92,124.67l-6.39,1.02c-.68.11-1.33-.36-1.44-1.04l-2.67-16.71c-.28-1.77-1.96-2.99-3.73-2.7l-1.4.22c-1.77.28-2.99,1.96-2.7,3.73l3.53,22.11c.28,1.77,1.96,2.99,3.73,2.7l12.24-1.96c1.77-.28,2.99-1.96,2.7-3.73l-.15-.95c-.28-1.77-1.96-2.99-3.73-2.7Z"/>
    <path class="cls-5" d="M120.5,121.06l-7.92,1.27c-.82.13-1.6-.43-1.73-1.25l-.07-.45c-.13-.82.43-1.6,1.25-1.73l6.57-1.05c1.91-.31,3.22-2.11,2.91-4.02l-.07-.45c-.31-1.91-2.11-3.22-4.02-2.91l-6.57,1.05c-.82.13-1.6-.43-1.73-1.25s.43-1.6,1.25-1.73l7.24-1.16c1.91-.31,3.22-2.11,2.91-4.02l-.07-.45c-.31-1.91-2.11-3.22-4.02-2.91l-13.1,2.09c-1.91.31-3.22,2.11-2.91,4.02l3.46,21.61c.31,1.91,2.11,3.22,4.02,2.91l13.77-2.2c1.91-.31,3.22-2.11,2.91-4.02l-.07-.45c-.31-1.91-2.11-3.22-4.02-2.91Z"/>
    <path class="cls-5" d="M147.98,106.04l-6.34,1.01c-1.66.27-2.8,1.84-2.53,3.5l.22,1.35c.27,1.66,1.84,2.8,3.5,2.53l.91-.14c.47-.07.91.24.98.71l.19,1.16c.07.44-.13.87-.51,1.08-.25.14-.52.28-.81.42-.78.39-1.78.68-2.95.87s-2.16.15-3.1-.08c-.94-.23-1.79-.63-2.52-1.19-.74-.56-1.35-1.28-1.84-2.13-.49-.87-.83-1.88-1.01-3s-.17-2.17.03-3.16c.19-.97.55-1.85,1.08-2.62.52-.76,1.2-1.4,2.03-1.92.83-.51,1.81-.87,2.92-1.04,1.36-.22,2.52-.21,3.45.02.45.11.89.27,1.31.47,1.38.65,2.99.21,3.83-1.06l1.09-1.66c.51-.78.64-1.73.37-2.62-.27-.87-.91-1.56-1.76-1.9-1.01-.4-2.09-.68-3.21-.81-1.95-.24-4.07-.18-6.27.18s-4.18,1.03-5.92,2.01c-1.76.99-3.24,2.27-4.4,3.79-1.16,1.52-1.99,3.29-2.46,5.26-.47,1.96-.52,4.09-.16,6.34s1.08,4.26,2.13,5.97c1.06,1.73,2.4,3.15,3.97,4.23,1.58,1.08,3.38,1.83,5.36,2.23,1.96.39,4.07.41,6.25.06,2.01-.32,3.98-.85,5.85-1.57,1.44-.56,2.83-1.27,4.14-2.12,1.03-.67,1.57-1.87,1.38-3.07l-1.69-10.58c-.27-1.66-1.84-2.8-3.5-2.53Z"/>
    <path class="cls-5" d="M177.95,101.25l-6.51,1.04c-1.62.26-2.72,1.78-2.46,3.4l.24,1.52c.26,1.62,1.78,2.72,3.4,2.46l.88-.14c.53-.08,1.02.28,1.11.8l.18,1.11c.06.41-.12.79-.47.99-.26.15-.55.3-.86.45-.78.39-1.78.68-2.95.87s-2.16.15-3.1-.08c-.94-.23-1.79-.63-2.52-1.19-.74-.56-1.35-1.28-1.84-2.13-.49-.87-.83-1.88-1.01-3s-.17-2.17.03-3.16c.19-.97.55-1.85,1.08-2.62.52-.76,1.2-1.4,2.03-1.92.83-.51,1.81-.87,2.92-1.04,1.36-.22,2.52-.21,3.45.02.47.12.92.28,1.35.49,1.33.64,2.95.2,3.76-1.03l1.18-1.79c.49-.75.62-1.67.36-2.52-.26-.85-.88-1.53-1.7-1.86-1.05-.43-2.16-.71-3.31-.85-1.95-.24-4.07-.18-6.27.18s-4.18,1.03-5.92,2.01c-1.76.99-3.24,2.27-4.4,3.79-1.16,1.52-1.99,3.29-2.46,5.26-.47,1.96-.52,4.09-.16,6.34s1.08,4.26,2.13,5.97c1.06,1.73,2.4,3.15,3.97,4.23,1.58,1.08,3.38,1.83,5.36,2.23,1.96.39,4.07.41,6.25.06,2.01-.32,3.98-.85,5.85-1.57,1.46-.56,2.87-1.29,4.19-2.15,1-.65,1.52-1.82,1.34-2.98l-1.71-10.72c-.26-1.62-1.78-2.72-3.4-2.46Z"/>
    <path class="cls-5" d="M202.89,107.88l-9.27,1.48c-.45.07-.87-.23-.94-.68l-.29-1.8c-.07-.45.23-.87.68-.94l7.92-1.27c1.54-.25,2.59-1.7,2.34-3.23l-.29-1.8c-.25-1.54-1.7-2.59-3.23-2.34l-7.92,1.27c-.45.07-.87-.23-.94-.68l-.22-1.35c-.07-.45.23-.87.68-.94l8.6-1.37c1.54-.25,2.59-1.7,2.34-3.23l-.29-1.8c-.25-1.54-1.7-2.59-3.23-2.34l-14.45,2.31c-1.54.25-2.59,1.7-2.34,3.23l3.67,22.97c.25,1.54,1.7,2.59,3.23,2.34l15.13-2.42c1.54-.25,2.59-1.7,2.34-3.23l-.29-1.8c-.25-1.54-1.7-2.59-3.23-2.34Z"/>
    <path class="cls-5" d="M225.08,99.69c1.03-.69,1.83-1.58,2.38-2.64.86-1.66,1.13-3.55.8-5.64-.27-1.7-.81-3.11-1.61-4.19-.8-1.08-1.8-1.9-2.96-2.44-1.12-.52-2.39-.82-3.76-.89-1.32-.07-2.71,0-4.12.23l-8.48,1.36c-1.54.25-2.59,1.7-2.34,3.23l3.67,22.97c.25,1.54,1.7,2.59,3.23,2.34l2.25-.36c1.54-.25,2.59-1.7,2.34-3.23l-1.12-7.02c-.07-.45.23-.87.68-.94.3-.05.61.07.79.32l5.93,7.96c.63.85,1.67,1.27,2.71,1.1l2.74-.44c1.02-.16,1.84-.84,2.2-1.8.36-.97.18-2.01-.49-2.8l-4.96-5.88c-.16-.2-.24-.45-.2-.71.02-.13.08-.36.31-.51ZM220.21,92.66c.08.49.05.88-.09,1.12-.16.29-.38.52-.68.69-.35.21-.77.37-1.25.48-.56.13-1.09.23-1.6.31l-1.65.26c-.45.07-.87-.23-.94-.68l-.39-2.44c-.07-.45.23-.87.68-.94l2.03-.32c.48-.08.98-.12,1.5-.13.45-.01.86.04,1.21.15.3.09.55.25.77.49.2.21.33.55.41,1.02Z"/>
    <path class="cls-5" d="M250.77,94.15c-.85-.94-1.85-1.65-2.99-2.11-1.08-.44-2.23-.73-3.4-.87-1.09-.13-2.1-.27-3.05-.42-.86-.14-1.59-.35-2.16-.64-.38-.19-.57-.47-.65-.96-.05-.29-.02-.53.08-.73.12-.25.3-.46.55-.65.29-.22.62-.4.97-.54,1-.4,1.94-.46,3.12-.24.28.05.53.12.76.22,1.21.49,2.62.03,3.37-1.11l1.21-1.84c.48-.73.6-1.62.32-2.44-.27-.82-.89-1.47-1.7-1.76-.75-.28-1.53-.47-2.33-.58-2.92-.4-6.04.02-8.73,1.3-1.27.61-2.38,1.41-3.28,2.37-.92.98-1.6,2.13-2.04,3.43-.44,1.31-.54,2.78-.28,4.36.27,1.67.86,3,1.75,3.95.86.91,1.87,1.6,3.01,2.05,1.09.43,2.25.73,3.45.89,1.1.15,2.15.31,3.11.49.87.16,1.61.4,2.21.71.41.22.63.53.7,1.02.04.28.02.51-.08.71-.12.25-.29.47-.53.66-.27.22-.6.41-.98.56-1.22.49-2.46.53-3.7.16-.35-.1-.68-.24-.98-.4-1.33-.71-2.94-.32-3.75.91l-1.32,2.02c-.45.69-.58,1.54-.35,2.33.23.79.79,1.44,1.54,1.79.95.44,1.94.75,2.93.94,1.67.31,3.44.32,5.27.02,1.46-.23,2.84-.65,4.1-1.23,1.29-.6,2.41-1.39,3.31-2.36.92-.98,1.6-2.15,2.02-3.48.42-1.33.5-2.83.24-4.45-.28-1.74-.86-3.11-1.74-4.08Z"/>
    <path class="cls-2" d="M21.83,111.03c-2.64.42-5.19.4-7.58-.08-2.41-.48-4.61-1.39-6.53-2.72-1.93-1.32-3.56-3.06-4.85-5.17-1.28-2.09-2.15-4.53-2.59-7.25s-.37-5.32.2-7.7c.57-2.4,1.58-4.56,3-6.42,1.42-1.85,3.22-3.41,5.36-4.62,2.12-1.2,4.53-2.02,7.17-2.44s5.2-.49,7.56-.21c1.49.18,2.93.56,4.27,1.14,1.08.46,1.89,1.37,2.23,2.49.34,1.12.16,2.31-.48,3.29l-1.59,2.41c-1.09,1.65-3.23,2.23-4.99,1.35-.51-.26-1.05-.45-1.59-.59-1.02-.25-2.31-.26-3.84-.02-1.23.2-2.32.58-3.23,1.15-.9.56-1.64,1.26-2.21,2.09-.57.83-.97,1.8-1.18,2.86-.22,1.1-.23,2.28-.03,3.51s.58,2.38,1.12,3.34c.53.94,1.21,1.73,2.01,2.34.8.61,1.73,1.05,2.75,1.3,1.04.25,2.19.28,3.43.08,1.32-.21,2.43-.54,3.3-.97.39-.19.75-.38,1.07-.57.14-.08.21-.23.19-.4l-.25-1.59c-.03-.21-.23-.35-.44-.32l-1.38.22c-2.13.34-4.14-1.12-4.48-3.25l-.34-2.13c-.34-2.13,1.12-4.14,3.25-4.48l8.01-1.28c2.13-.34,4.14,1.12,4.48,3.25l2.07,12.92c.24,1.51-.41,3.02-1.65,3.85-1.65,1.1-3.41,2.01-5.25,2.72-2.24.87-4.6,1.5-7.01,1.89ZM16.2,75.8c-2.5.4-4.78,1.17-6.78,2.3-2,1.13-3.68,2.58-5,4.31-1.32,1.73-2.26,3.74-2.79,5.98-.53,2.23-.59,4.67-.18,7.24s1.23,4.87,2.43,6.82c1.2,1.96,2.72,3.58,4.52,4.81,1.79,1.23,3.84,2.08,6.1,2.53,2.25.45,4.65.47,7.16.07,2.33-.37,4.61-.98,6.77-1.82,1.75-.68,3.44-1.55,5.02-2.6.86-.57,1.31-1.63,1.14-2.68l-2.07-12.92c-.24-1.49-1.64-2.51-3.13-2.27l-8.01,1.28c-1.49.24-2.51,1.64-2.27,3.13l.34,2.13c.24,1.49,1.64,2.51,3.13,2.27l1.38-.22c.85-.14,1.65.44,1.78,1.29l.25,1.59c.1.65-.2,1.28-.77,1.6-.34.2-.72.4-1.14.6-.98.48-2.2.85-3.64,1.08s-2.7.19-3.89-.1c-1.19-.29-2.26-.79-3.19-1.51-.93-.71-1.71-1.61-2.32-2.69-.61-1.08-1.04-2.34-1.26-3.74s-.21-2.69.04-3.93c.24-1.23.7-2.34,1.36-3.3.66-.96,1.52-1.78,2.56-2.43,1.04-.65,2.28-1.09,3.66-1.31,1.68-.27,3.13-.26,4.31.04.63.15,1.24.38,1.84.68,1.22.61,2.72.2,3.48-.95l1.59-2.41c.45-.68.57-1.52.34-2.3-.24-.79-.81-1.42-1.56-1.75-1.24-.53-2.57-.88-3.95-1.05-2.25-.27-4.68-.2-7.23.2Z"/>
    <path class="cls-2" d="M60.91,103.96l-3.23.52c-1.44.23-2.88-.35-3.76-1.53l-6.99-9.38c-.21-.28-.74-.06-.68.29l1.32,8.27c.34,2.13-1.12,4.14-3.25,4.48l-2.66.42c-2.13.34-4.14-1.12-4.49-3.25l-4.33-27.07c-.34-2.13,1.12-4.14,3.25-4.48l10-1.6c1.71-.27,3.39-.37,4.98-.28,1.7.09,3.26.47,4.65,1.11,1.46.67,2.71,1.7,3.71,3.06,1,1.35,1.67,3.1,2.01,5.2.41,2.58.08,4.94-1,7.01-.7,1.34-1.71,2.46-3,3.33h0c-.08.05-.1.14-.11.2-.02.13.02.27.11.37l5.84,6.93c.92,1.09,1.17,2.55.68,3.89-.5,1.34-1.64,2.28-3.05,2.5ZM46.37,92.26c.58-.09,1.15.14,1.5.61l6.99,9.38c.61.82,1.62,1.23,2.63,1.07l3.23-.52c.99-.16,1.78-.81,2.13-1.75.35-.94.17-1.95-.47-2.72l-5.84-6.93c-.3-.36-.44-.83-.37-1.3.03-.25.16-.7.62-1.01h0c1.13-.76,2.01-1.73,2.61-2.9.96-1.84,1.25-3.95.88-6.28-.31-1.91-.91-3.49-1.79-4.68-.89-1.2-1.98-2.1-3.26-2.69-1.25-.58-2.67-.92-4.22-1-1.51-.08-3.1,0-4.73.27l-10,1.6c-1.49.24-2.51,1.64-2.27,3.13l4.33,27.07c.24,1.49,1.64,2.51,3.14,2.27l2.66-.42c1.49-.24,2.51-1.64,2.27-3.13l-1.32-8.27c-.14-.85.44-1.65,1.29-1.78ZM47.2,84.95l-1.95.31c-.85.14-1.65-.44-1.79-1.29l-.46-2.88c-.14-.85.44-1.65,1.29-1.78l2.39-.38c.59-.09,1.21-.15,1.84-.16.59-.01,1.14.06,1.61.21.45.14.83.38,1.16.73.32.34.53.83.64,1.51.11.72.06,1.29-.17,1.7-.24.44-.58.78-1.01,1.04-.47.28-1.02.49-1.65.63-.67.15-1.31.28-1.92.37ZM44.49,80.46c-.21.03-.35.23-.32.44l.46,2.88c.03.21.23.35.44.31l1.95-.31c.58-.09,1.2-.21,1.85-.36.5-.11.94-.28,1.3-.5.25-.15.44-.34.58-.6.07-.13.12-.44.04-.94-.09-.57-.24-.8-.33-.88-.19-.2-.4-.34-.66-.42-.35-.11-.77-.16-1.23-.15-.58.01-1.15.06-1.68.15l-2.39.38Z"/>
    <path class="cls-2" d="M88.11,99.61l-17.83,2.85c-2.13.34-4.14-1.12-4.48-3.25l-4.33-27.07c-.34-2.13,1.12-4.14,3.25-4.48l17.03-2.72c2.13-.34,4.14,1.12,4.48,3.25l.34,2.13c.34,2.13-1.12,4.14-3.25,4.48l-10.13,1.62c-.21.03-.35.23-.32.44l.26,1.6c.03.21.23.35.44.32l9.34-1.49c2.13-.34,4.14,1.12,4.48,3.25l.34,2.13c.34,2.13-1.12,4.14-3.25,4.48l-9.34,1.49c-.21.03-.35.23-.32.44l.34,2.13c.03.21.23.35.44.32l10.93-1.75c2.13-.34,4.14,1.12,4.48,3.25l.34,2.13c.34,2.13-1.12,4.14-3.25,4.48ZM64.91,68.82c-1.49.24-2.51,1.64-2.27,3.13l4.33,27.07c.24,1.49,1.64,2.51,3.13,2.27l17.83-2.85c1.49-.24,2.51-1.64,2.27-3.13l-.34-2.13c-.24-1.49-1.64-2.51-3.13-2.27l-10.93,1.75c-.85.14-1.65-.44-1.78-1.29l-.34-2.13c-.14-.85.44-1.65,1.29-1.78l9.34-1.49c1.49-.24,2.51-1.64,2.27-3.13l-.34-2.13c-.24-1.49-1.64-2.51-3.13-2.27l-9.34,1.49c-.85.14-1.65-.44-1.78-1.29l-.26-1.6c-.14-.85.44-1.65,1.29-1.78l10.13-1.62c1.49-.24,2.51-1.64,2.27-3.13l-.34-2.13c-.24-1.49-1.64-2.51-3.13-2.27l-17.03,2.72Z"/>
    <path class="cls-2" d="M122.49,94.12l-5.71.91c-1.33.21-2.71-.29-3.59-1.32l-12.49-14.48,2.26,14.04c.34,2.13-1.12,4.14-3.25,4.49l-2.66.42c-2.13.34-4.14-1.12-4.49-3.25l-4.33-27.07c-.34-2.13,1.12-4.14,3.25-4.48l6.07-.97c1.34-.21,2.71.29,3.59,1.32l11.98,14.01-2.12-13.53c-.34-2.13,1.12-4.14,3.25-4.48l2.66-.42c2.13-.34,4.14,1.12,4.48,3.25l4.33,27.07c.34,2.13-1.12,4.14-3.25,4.48ZM98.88,75.31l15.2,17.63c.62.72,1.58,1.07,2.51.92l5.71-.91c1.49-.24,2.51-1.64,2.27-3.13l-4.33-27.07c-.24-1.49-1.64-2.51-3.13-2.27l-2.66.42c-1.49.24-2.51,1.64-2.27,3.13l2.76,17.64-14.69-17.17c-.62-.72-1.58-1.07-2.51-.92l-6.07.97c-1.49.24-2.51,1.64-2.27,3.13l4.33,27.07c.24,1.49,1.64,2.51,3.14,2.27l2.66-.42c1.49-.24,2.51-1.64,2.27-3.13l-2.92-18.15Z"/>
    <path class="cls-2" d="M138.99,92.29c-2.22.36-4.38.35-6.41-.03-1.22-.23-2.43-.61-3.6-1.15-1.04-.48-1.81-1.38-2.13-2.48-.32-1.1-.14-2.28.49-3.23l1.56-2.38c1.11-1.7,3.34-2.25,5.18-1.27.33.17.68.32,1.05.43,1.35.4,2.69.34,3.97-.17.39-.16.72-.35,1-.58.21-.17.36-.36.46-.57.04-.08.09-.23.04-.5-.06-.4-.21-.61-.52-.78-.64-.34-1.46-.6-2.43-.78-1.12-.2-2.34-.4-3.64-.57-1.46-.2-2.88-.57-4.2-1.09-1.43-.57-2.69-1.43-3.76-2.56-1.14-1.2-1.88-2.87-2.21-4.96-.31-1.96-.19-3.78.36-5.42.54-1.61,1.39-3.04,2.53-4.26,1.11-1.19,2.47-2.17,4.04-2.92,3.18-1.52,6.95-2.08,10.62-1.58.98.14,1.95.38,2.87.71,1.12.41,1.98,1.31,2.36,2.45.38,1.15.21,2.38-.45,3.39l-1.43,2.17c-1.04,1.57-3.01,2.22-4.69,1.53-.24-.1-.5-.17-.78-.22-1.29-.23-2.3-.16-3.35.26-.36.14-.7.33-1,.56-.22.16-.37.34-.47.56-.06.12-.07.29-.04.51.07.43.21.58.44.69.62.31,1.42.54,2.38.69,1.11.18,2.3.34,3.57.5,1.44.17,2.84.53,4.16,1.06,1.42.58,2.68,1.46,3.74,2.64,1.11,1.23,1.85,2.95,2.19,5.11.32,2,.22,3.86-.3,5.52-.52,1.65-1.37,3.11-2.51,4.33-1.12,1.19-2.49,2.17-4.09,2.91-1.54.71-3.21,1.22-4.99,1.5ZM131.71,82.49c-.73.12-1.41.53-1.84,1.18l-1.56,2.38c-.44.67-.56,1.49-.34,2.26.22.77.76,1.4,1.49,1.73,1.08.5,2.2.85,3.32,1.06,1.9.35,3.92.36,6.01.03,1.67-.27,3.24-.74,4.68-1.41,1.46-.68,2.71-1.57,3.72-2.65,1.03-1.09,1.78-2.39,2.25-3.88.47-1.48.56-3.16.26-4.98-.31-1.93-.95-3.45-1.91-4.51-.94-1.04-2.05-1.82-3.31-2.33-1.23-.49-2.53-.83-3.86-.99-1.29-.15-2.49-.32-3.62-.5-1.07-.17-1.99-.44-2.71-.8-.62-.31-.97-.8-1.09-1.56-.07-.47-.03-.87.15-1.22.19-.38.46-.7.82-.97.38-.29.81-.53,1.27-.71,1.28-.5,2.47-.6,4-.32.37.07.71.17,1.02.29,1.16.48,2.53.02,3.26-1.09l1.43-2.17c.46-.7.58-1.57.31-2.37-.26-.8-.86-1.42-1.65-1.71-.84-.31-1.72-.53-2.62-.65-3.44-.47-6.97.05-9.95,1.48-1.44.69-2.68,1.58-3.69,2.66-1.02,1.09-1.79,2.38-2.27,3.82-.49,1.46-.59,3.09-.31,4.86s.94,3.31,1.91,4.34c.95,1.01,2.07,1.77,3.34,2.27,1.23.49,2.55.83,3.92,1.02,1.32.18,2.56.37,3.7.58,1.09.2,2.02.5,2.77.9.64.34,1.01.88,1.14,1.63.07.44.03.83-.14,1.18-.18.38-.43.7-.78.99h0c-.37.3-.8.55-1.3.76-1.53.62-3.13.69-4.75.21-.45-.13-.87-.31-1.27-.52-.58-.31-1.21-.4-1.81-.31Z"/>
    <path class="cls-2" d="M22.25,144.77l-2.41.38c-1.31.21-2.59-.39-3.27-1.53l-12.97-21.69c-.55-.92-.61-2.04-.15-3.01.45-.97,1.35-1.65,2.41-1.82l3.01-.48c1.31-.21,2.63.42,3.3,1.57l6.59,11.43s.07.13.22.11.17-.12.18-.17l2.73-12.93c.27-1.29,1.33-2.3,2.64-2.51l2.57-.41c1.06-.17,2.13.2,2.87.99.73.79,1.02,1.88.77,2.93l-5.85,24.7c-.3,1.27-1.33,2.23-2.62,2.44ZM6.02,118.1c-.73.12-1.35.58-1.66,1.25-.31.67-.27,1.44.11,2.08l12.97,21.69c.47.78,1.35,1.2,2.25,1.05l2.41-.38c.89-.14,1.6-.8,1.81-1.68l5.85-24.7c.17-.72-.03-1.48-.53-2.02-.5-.54-1.24-.8-1.98-.68l-2.57.41c-.9.14-1.63.84-1.82,1.73l-2.73,12.93c-.11.51-.48.87-1,.95s-.98-.14-1.25-.59l-6.59-11.43c-.46-.79-1.37-1.23-2.27-1.08l-3.01.48Z"/>
    <path class="cls-2" d="M53.95,139.7l-13.99,2.24c-2.12.34-4.12-1.11-4.46-3.23l-3.49-21.83c-.34-2.12,1.11-4.12,3.23-4.46l13.32-2.13c2.12-.34,4.12,1.11,4.46,3.23l.11.67c.34,2.12-1.11,4.12-3.23,4.46l-7.46,1.19c-.49.08-.82.54-.74,1.03l.04.22c.08.49.54.82,1.03.74l6.79-1.09c2.12-.34,4.12,1.11,4.46,3.23l.11.67c.34,2.12-1.11,4.12-3.23,4.46l-6.79,1.09c-.49.08-.82.54-.74,1.03l.11.67c.08.49.54.82,1.03.74l8.14-1.3c2.12-.34,4.12,1.11,4.46,3.23l.11.67c.34,2.12-1.11,4.12-3.23,4.46ZM35.4,113.4c-1.58.25-2.65,1.74-2.4,3.32l3.49,21.83c.25,1.58,1.74,2.65,3.32,2.4l13.99-2.24c1.58-.25,2.65-1.74,2.4-3.32l-.11-.67c-.25-1.58-1.74-2.65-3.32-2.4l-8.14,1.3c-1.03.17-2.01-.54-2.17-1.57l-.11-.67c-.17-1.03.54-2.01,1.57-2.17l6.79-1.09c1.58-.25,2.65-1.74,2.4-3.32l-.11-.67c-.25-1.58-1.74-2.65-3.32-2.4l-6.79,1.09c-1.03.17-2.01-.54-2.17-1.57l-.04-.22c-.17-1.03.54-2.01,1.57-2.17l7.46-1.19c1.58-.25,2.65-1.74,2.4-3.32l-.11-.67c-.25-1.58-1.74-2.65-3.32-2.4l-13.32,2.13Z"/>
    <path class="cls-2" d="M78.43,135.79l-2.74.44c-1.23.2-2.45-.3-3.19-1.3l-5.93-7.96c-.18-.24-.62-.05-.58.24l1.12,7.02c.29,1.81-.95,3.52-2.76,3.81l-2.26.36c-1.81.29-3.52-.95-3.81-2.76l-3.67-22.97c-.29-1.81.95-3.52,2.76-3.81l8.48-1.36c1.45-.23,2.87-.31,4.23-.24,1.44.08,2.77.4,3.95.94,1.24.57,2.3,1.45,3.15,2.6.85,1.14,1.42,2.63,1.7,4.41.35,2.19.06,4.19-.85,5.95-.59,1.14-1.45,2.09-2.55,2.83h0c-.07.04-.09.12-.1.17-.02.11.02.23.09.32l4.96,5.88c.78.93,1,2.16.57,3.3-.42,1.14-1.39,1.93-2.59,2.12ZM66.1,125.86c.49-.08.97.12,1.27.52l5.93,7.96c.52.7,1.37,1.04,2.23.91l2.74-.44c.84-.13,1.51-.69,1.81-1.48.3-.8.15-1.66-.4-2.31l-4.96-5.88c-.26-.31-.37-.71-.32-1.1.03-.21.14-.6.53-.86h0c.96-.64,1.7-1.47,2.22-2.46.81-1.56,1.06-3.35.75-5.33-.26-1.62-.77-2.96-1.52-3.97-.75-1.02-1.68-1.78-2.77-2.28-1.06-.49-2.27-.78-3.58-.85-1.28-.07-2.63,0-4.02.23l-8.48,1.36c-1.26.2-2.13,1.4-1.93,2.66l3.67,22.97c.2,1.26,1.4,2.13,2.66,1.93l2.26-.36c1.26-.2,2.13-1.4,1.93-2.66l-1.12-7.02c-.12-.72.38-1.4,1.1-1.51ZM66.8,119.65l-1.65.26c-.72.12-1.4-.38-1.51-1.1l-.39-2.44c-.12-.72.38-1.4,1.1-1.51l2.03-.32c.5-.08,1.03-.13,1.56-.14.5-.01.96.05,1.37.18.38.12.7.32.99.62.27.29.45.7.54,1.28.1.61.05,1.09-.14,1.44-.21.37-.49.66-.86.88-.4.24-.87.42-1.4.54-.57.13-1.11.23-1.63.32ZM64.5,115.85c-.18.03-.3.19-.27.37l.39,2.44c.03.18.19.3.37.27l1.65-.26c.5-.08,1.02-.18,1.57-.31.43-.1.8-.24,1.11-.42.22-.13.37-.29.49-.51.06-.11.1-.37.03-.8-.08-.48-.21-.68-.28-.75-.16-.17-.34-.28-.56-.35-.3-.09-.65-.14-1.05-.13-.49.01-.97.05-1.43.13l-2.03.32Z"/>
    <path class="cls-2" d="M99.17,132.47l-12.24,1.96c-2.05.33-3.98-1.07-4.3-3.12l-3.53-22.11c-.33-2.05,1.07-3.98,3.12-4.3l1.4-.22c2.05-.33,3.98,1.07,4.3,3.12l2.67,16.71c.07.41.45.69.87.63l6.39-1.02c2.05-.33,3.98,1.07,4.3,3.12l.15.95c.33,2.05-1.07,3.98-3.12,4.3ZM82.37,105.89c-1.5.24-2.53,1.66-2.29,3.16l3.53,22.11c.24,1.5,1.66,2.53,3.16,2.29l12.24-1.96c1.5-.24,2.53-1.66,2.29-3.16l-.15-.95c-.24-1.5-1.66-2.53-3.16-2.29l-6.39,1.02c-.96.15-1.86-.5-2.01-1.46l-2.67-16.71c-.24-1.5-1.66-2.53-3.16-2.29l-1.4.22Z"/>
    <path class="cls-2" d="M121.75,128.86l-13.77,2.2c-2.18.35-4.24-1.14-4.59-3.33l-3.46-21.61c-.35-2.18,1.14-4.24,3.32-4.59l13.1-2.09c2.18-.35,4.24,1.14,4.59,3.32l.07.45c.35,2.18-1.14,4.24-3.33,4.59l-7.24,1.16c-.55.09-.92.61-.84,1.15s.61.92,1.15.84l6.57-1.05c2.18-.35,4.24,1.14,4.59,3.32l.07.45c.35,2.18-1.14,4.24-3.33,4.59l-6.57,1.05c-.55.09-.92.61-.84,1.15l.07.45c.09.55.61.92,1.15.84l7.92-1.27c2.18-.35,4.24,1.14,4.59,3.32l.07.45c.35,2.18-1.14,4.24-3.33,4.59ZM103.41,102.52c-1.64.26-2.76,1.81-2.5,3.44l3.46,21.61c.26,1.64,1.81,2.76,3.45,2.5l13.77-2.2c1.64-.26,2.76-1.81,2.5-3.45l-.07-.45c-.26-1.64-1.81-2.76-3.45-2.5l-7.92,1.27c-1.09.17-2.12-.57-2.3-1.67l-.07-.45c-.17-1.09.57-2.12,1.67-2.3l6.57-1.05c1.64-.26,2.76-1.81,2.5-3.45l-.07-.45c-.26-1.64-1.81-2.76-3.45-2.5l-6.57,1.05c-1.09.17-2.12-.57-2.3-1.67s.57-2.12,1.67-2.3l7.24-1.16c1.64-.26,2.76-1.81,2.5-3.45l-.07-.45c-.26-1.64-1.81-2.76-3.45-2.5l-13.1,2.09Z"/>
    <path class="cls-2" d="M141.87,126.34c-2.24.36-4.41.34-6.43-.07-2.05-.41-3.91-1.18-5.54-2.3-1.64-1.12-3.02-2.6-4.12-4.38-1.09-1.77-1.83-3.84-2.2-6.16s-.31-4.51.17-6.53c.48-2.04,1.34-3.87,2.54-5.45,1.2-1.57,2.73-2.89,4.55-3.92,1.8-1.01,3.84-1.71,6.09-2.07s4.41-.42,6.41-.18c1.16.14,2.28.42,3.33.84.98.39,1.73,1.2,2.05,2.21.32,1.03.17,2.14-.43,3.04l-1.09,1.66c-.97,1.47-2.85,1.99-4.46,1.23-.39-.19-.8-.33-1.22-.44-.87-.21-1.96-.22-3.26-.01-1.05.17-1.97.5-2.74.97-.76.47-1.4,1.07-1.88,1.77-.48.71-.82,1.52-1,2.43-.18.93-.19,1.93-.03,2.98s.49,2.02.95,2.84c.45.8,1.03,1.46,1.71,1.98.68.52,1.46.89,2.34,1.1.88.22,1.86.24,2.91.07,1.12-.18,2.06-.46,2.8-.82.29-.14.55-.28.79-.41.19-.11.3-.33.26-.56l-.19-1.16c-.03-.19-.21-.33-.41-.29l-.91.14c-1.94.31-3.76-1.01-4.07-2.95l-.22-1.35c-.31-1.93,1.01-3.76,2.95-4.07l6.34-1.01c1.93-.31,3.76,1.01,4.07,2.95l1.69,10.58c.22,1.39-.41,2.79-1.6,3.56-1.33.87-2.76,1.59-4.23,2.16-1.9.74-3.91,1.27-5.95,1.6ZM137.09,96.45c-2.12.34-4.06,1-5.75,1.95-1.7.96-3.13,2.19-4.24,3.65-1.12,1.47-1.92,3.17-2.37,5.07-.45,1.89-.5,3.96-.15,6.14s1.04,4.13,2.06,5.79c1.02,1.67,2.31,3.04,3.83,4.08,1.52,1.04,3.26,1.77,5.17,2.15,1.91.38,3.95.4,6.07.06,1.97-.32,3.91-.84,5.75-1.55,1.41-.54,2.77-1.24,4.04-2.07.86-.56,1.32-1.57,1.16-2.57l-1.69-10.58c-.22-1.39-1.53-2.34-2.92-2.12l-6.34,1.01c-1.39.22-2.34,1.53-2.12,2.92l.22,1.35c.22,1.39,1.53,2.34,2.93,2.12l.91-.14c.74-.12,1.43.39,1.55,1.12l.19,1.16c.1.64-.2,1.28-.76,1.6-.26.14-.53.29-.83.44-.83.41-1.87.72-3.09.91s-2.29.16-3.3-.09c-1.01-.24-1.92-.67-2.71-1.28-.79-.6-1.45-1.37-1.97-2.28-.52-.92-.88-1.98-1.07-3.17s-.18-2.28.03-3.33c.21-1.04.59-1.98,1.16-2.8.56-.82,1.29-1.51,2.17-2.06.89-.55,1.93-.92,3.11-1.11,1.43-.23,2.66-.22,3.65.03.48.12.96.29,1.41.5,1.16.55,2.5.17,3.2-.88l1.09-1.66c.43-.65.54-1.45.31-2.19-.23-.73-.76-1.3-1.46-1.58-.97-.39-2.01-.65-3.08-.78-1.91-.23-3.97-.17-6.13.17Z"/>
    <path class="cls-2" d="M171.76,121.56c-2.24.36-4.41.34-6.43-.07-2.05-.41-3.91-1.18-5.54-2.3-1.64-1.12-3.02-2.6-4.12-4.38-1.09-1.77-1.83-3.84-2.2-6.16s-.31-4.51.17-6.53c.48-2.04,1.34-3.87,2.54-5.45,1.2-1.57,2.73-2.89,4.55-3.92,1.8-1.01,3.84-1.71,6.09-2.07s4.41-.42,6.41-.18c1.2.15,2.36.44,3.44.89.96.39,1.68,1.18,1.99,2.18.31,1,.16,2.07-.42,2.95l-1.18,1.79c-.95,1.44-2.84,1.96-4.39,1.21-.4-.19-.83-.35-1.26-.45-.87-.21-1.96-.22-3.25-.01-1.05.17-1.97.5-2.74.97-.76.47-1.4,1.07-1.88,1.77-.48.71-.82,1.52-1,2.43-.18.93-.19,1.93-.03,2.98s.49,2.02.95,2.84c.45.8,1.03,1.46,1.71,1.98.68.52,1.46.89,2.34,1.1.88.22,1.86.24,2.91.07,1.12-.18,2.06-.46,2.8-.82.3-.15.58-.3.83-.44.17-.1.25-.28.22-.48l-.18-1.11c-.04-.25-.28-.43-.53-.39l-.88.14c-1.89.3-3.67-.99-3.97-2.88l-.24-1.52c-.3-1.89.99-3.67,2.88-3.97l6.51-1.04c1.89-.3,3.67.99,3.97,2.88l1.71,10.72c.22,1.35-.4,2.71-1.56,3.47-1.35.88-2.79,1.62-4.28,2.2-1.9.74-3.91,1.27-5.95,1.6ZM166.98,91.67c-2.12.34-4.06,1-5.75,1.95-1.7.96-3.13,2.19-4.24,3.65-1.12,1.47-1.92,3.17-2.37,5.07-.45,1.89-.5,3.96-.15,6.14s1.04,4.13,2.06,5.79c1.02,1.67,2.31,3.04,3.83,4.08,1.52,1.04,3.26,1.77,5.17,2.15,1.91.38,3.95.4,6.07.06,1.97-.32,3.91-.84,5.75-1.55,1.43-.55,2.8-1.26,4.09-2.1.83-.54,1.27-1.52,1.12-2.48l-1.71-10.72c-.21-1.34-1.48-2.26-2.83-2.05l-6.51,1.04c-1.34.21-2.26,1.48-2.05,2.83l.24,1.52c.21,1.34,1.48,2.26,2.83,2.05l.88-.14c.8-.13,1.55.42,1.68,1.22l.18,1.11c.1.61-.18,1.2-.72,1.51-.27.15-.56.31-.88.47-.83.41-1.87.72-3.09.91s-2.29.16-3.3-.09c-1.01-.24-1.92-.67-2.71-1.28-.79-.6-1.45-1.37-1.97-2.28-.52-.92-.88-1.98-1.07-3.17s-.18-2.28.03-3.33c.21-1.04.59-1.98,1.16-2.8.56-.82,1.29-1.51,2.17-2.06.89-.55,1.93-.92,3.11-1.11,1.43-.23,2.66-.22,3.65.03.5.12.99.3,1.45.52,1.11.53,2.45.17,3.13-.86l1.18-1.79c.41-.62.52-1.39.3-2.1-.22-.71-.73-1.27-1.41-1.55-1-.41-2.08-.69-3.19-.82-1.91-.23-3.97-.17-6.13.17Z"/>
    <path class="cls-2" d="M204.13,115.69l-15.13,2.42c-1.81.29-3.52-.95-3.81-2.76l-3.67-22.97c-.29-1.81.95-3.52,2.76-3.81l14.45-2.31c1.81-.29,3.52.95,3.81,2.76l.29,1.8c.29,1.81-.95,3.52-2.76,3.81l-8.6,1.37c-.18.03-.3.19-.27.37l.22,1.35c.03.18.19.3.37.27l7.92-1.27c1.81-.29,3.52.95,3.81,2.76l.29,1.8c.29,1.81-.95,3.52-2.76,3.81l-7.92,1.27c-.18.03-.3.19-.27.37l.29,1.8c.03.18.19.3.37.27l9.27-1.48c1.81-.29,3.52.95,3.81,2.76l.29,1.8c.29,1.81-.95,3.52-2.76,3.81ZM184.45,89.57c-1.26.2-2.13,1.4-1.93,2.66l3.67,22.97c.2,1.26,1.4,2.13,2.66,1.93l15.13-2.42c1.26-.2,2.13-1.4,1.93-2.66l-.29-1.8c-.2-1.26-1.4-2.13-2.66-1.93l-9.27,1.48c-.72.12-1.4-.38-1.51-1.1l-.29-1.8c-.12-.72.38-1.4,1.1-1.51l7.92-1.27c1.26-.2,2.13-1.4,1.93-2.66l-.29-1.8c-.2-1.26-1.4-2.13-2.66-1.93l-7.92,1.27c-.72.12-1.4-.38-1.51-1.1l-.22-1.35c-.12-.72.38-1.4,1.1-1.51l8.6-1.37c1.26-.2,2.13-1.4,1.93-2.66l-.29-1.8c-.2-1.26-1.4-2.13-2.66-1.93l-14.45,2.31Z"/>
    <path class="cls-2" d="M228.29,111.83l-2.74.44c-1.23.2-2.45-.3-3.19-1.3l-5.93-7.96c-.18-.24-.62-.05-.58.24l1.12,7.02c.29,1.81-.95,3.52-2.76,3.81l-2.25.36c-1.81.29-3.52-.95-3.81-2.76l-3.67-22.97c-.29-1.81.95-3.52,2.76-3.81l8.48-1.36c1.45-.23,2.87-.31,4.23-.24,1.44.08,2.77.4,3.95.94,1.24.57,2.3,1.45,3.15,2.6.85,1.14,1.42,2.63,1.7,4.41.35,2.19.06,4.19-.85,5.95-.59,1.14-1.45,2.09-2.55,2.83h0c-.06.04-.09.12-.09.17-.02.11.02.23.09.32l4.96,5.88c.78.93,1,2.16.57,3.3-.42,1.14-1.39,1.93-2.59,2.12ZM215.96,101.9c.49-.08.97.12,1.27.52l5.93,7.96c.52.7,1.37,1.04,2.23.91l2.74-.44c.84-.13,1.51-.69,1.81-1.48.3-.8.15-1.66-.4-2.31l-4.96-5.88c-.26-.31-.37-.71-.32-1.1.03-.21.14-.6.53-.86h0c.96-.64,1.7-1.47,2.22-2.46.81-1.56,1.06-3.35.75-5.33-.26-1.62-.77-2.96-1.52-3.97-.75-1.02-1.68-1.78-2.77-2.28-1.06-.49-2.27-.78-3.58-.85-1.28-.07-2.63,0-4.02.23l-8.48,1.36c-1.26.2-2.13,1.4-1.93,2.66l3.67,22.97c.2,1.26,1.4,2.13,2.66,1.93l2.25-.36c1.26-.2,2.13-1.4,1.93-2.66l-1.12-7.02c-.12-.72.38-1.4,1.1-1.51ZM216.66,95.69l-1.65.26c-.72.12-1.4-.38-1.51-1.1l-.39-2.44c-.12-.72.38-1.4,1.1-1.51l2.03-.32c.5-.08,1.03-.13,1.56-.14.5-.01.96.05,1.37.18.38.12.7.32.99.62.27.29.45.7.54,1.28.1.61.05,1.09-.14,1.44-.21.37-.49.66-.86.88-.4.24-.87.42-1.4.54-.57.13-1.11.23-1.63.32ZM214.36,91.89c-.18.03-.3.19-.27.37l.39,2.44c.03.18.19.3.37.27l1.65-.26c.5-.08,1.02-.18,1.57-.31.43-.1.8-.24,1.11-.42.22-.13.37-.29.49-.51.06-.11.1-.37.03-.8-.08-.48-.21-.68-.28-.75-.16-.17-.34-.28-.56-.35-.3-.09-.65-.14-1.05-.13-.49.01-.97.05-1.43.13l-2.03.32Z"/>
    <path class="cls-2" d="M242.9,110.19c-1.89.3-3.72.29-5.44-.03-1.03-.19-2.06-.52-3.05-.98-.88-.4-1.54-1.17-1.81-2.1-.27-.93-.12-1.93.41-2.74l1.32-2.02c.95-1.44,2.84-1.91,4.4-1.08.28.15.58.27.89.36,1.15.34,2.28.29,3.37-.15.33-.13.61-.3.85-.49.18-.14.3-.3.39-.49.03-.07.07-.19.04-.42-.05-.34-.17-.52-.45-.66-.55-.29-1.24-.51-2.06-.66-.95-.17-1.99-.34-3.09-.49-1.24-.17-2.44-.48-3.56-.93-1.21-.48-2.29-1.21-3.19-2.17-.96-1.02-1.6-2.44-1.88-4.21-.27-1.66-.16-3.21.3-4.6.46-1.37,1.18-2.58,2.15-3.61.95-1.01,2.1-1.84,3.43-2.48,2.7-1.29,5.9-1.76,9.01-1.34.83.11,1.65.32,2.43.61.95.35,1.68,1.11,2,2.08.32.97.18,2.02-.38,2.87l-1.21,1.84c-.88,1.33-2.55,1.88-3.98,1.3-.2-.08-.42-.15-.67-.19-1.1-.2-1.95-.14-2.84.22-.31.12-.59.28-.85.47-.18.14-.31.29-.4.47-.05.11-.06.25-.03.43.06.36.18.49.38.59.53.26,1.21.46,2.02.59.94.15,1.95.29,3.03.42,1.22.15,2.41.45,3.53.9,1.21.49,2.28,1.24,3.18,2.24h0c.94,1.04,1.57,2.5,1.86,4.34.27,1.7.18,3.27-.26,4.68-.44,1.4-1.16,2.64-2.13,3.67-.95,1.01-2.12,1.84-3.47,2.47-1.3.6-2.73,1.03-4.23,1.27ZM236.73,101.86c-.62.1-1.19.45-1.56,1l-1.32,2.02c-.37.57-.48,1.27-.29,1.92.19.65.65,1.19,1.26,1.47.92.42,1.86.72,2.82.9,1.61.3,3.33.31,5.1.02,1.41-.23,2.75-.63,3.97-1.19,1.24-.57,2.3-1.33,3.16-2.25.87-.93,1.51-2.03,1.91-3.29.4-1.26.47-2.68.22-4.23-.26-1.64-.81-2.93-1.62-3.83h0c-.8-.88-1.74-1.55-2.81-1.98-1.04-.42-2.14-.7-3.28-.84-1.09-.13-2.12-.27-3.07-.43-.91-.15-1.68-.38-2.3-.68-.53-.26-.82-.68-.92-1.32-.06-.4-.02-.74.13-1.03.16-.32.39-.59.69-.82.33-.25.69-.45,1.08-.61,1.08-.43,2.1-.51,3.39-.27.31.06.6.14.86.25.98.4,2.15.02,2.76-.92l1.21-1.84c.39-.6.49-1.33.27-2.01-.22-.68-.73-1.21-1.4-1.45-.71-.26-1.46-.45-2.22-.55-2.92-.4-5.92.05-8.44,1.25-1.22.58-2.27,1.34-3.13,2.26-.87.92-1.52,2.02-1.93,3.24-.41,1.24-.5,2.63-.26,4.13s.8,2.81,1.62,3.68c.81.85,1.76,1.5,2.83,1.93,1.05.42,2.17.71,3.33.86,1.12.15,2.17.32,3.14.49.92.17,1.71.42,2.35.76.55.29.86.74.96,1.39.06.38.02.71-.12,1-.15.32-.37.6-.66.84-.31.25-.68.47-1.1.64-1.3.53-2.65.59-4.03.18-.38-.11-.74-.26-1.08-.44-.49-.26-1.03-.34-1.53-.26Z"/>
    <path class="cls-2" d="M150.97,211.82c-1.72.11-3.46.2-5.19.27l-.11-3.12c1.72-.07,3.5-.16,5.2-.28,1.19-.08,2.44-.18,3.73-.32l.38,3.1c-1.39.15-2.74.26-4.02.35ZM138.46,212.29c-3.08.03-6.16,0-9.16-.09l.2-3.12c2.93.09,5.95.12,8.98.09l-.02,3.12ZM162.31,210.44l-.63-3.06c2.8-.47,5.75-1.06,8.77-1.75l.86,3.02c-3.1.7-6.12,1.3-9,1.79ZM121.99,211.84c-3.07-.21-6.13-.49-9.1-.84l.56-3.09c2.9.34,5.89.61,8.9.82l-.36,3.11ZM178.41,206.9l-1.01-2.98c2.88-.77,5.77-1.61,8.57-2.49l1.2,2.93c-2.86.9-5.8,1.76-8.75,2.55ZM105.67,210.01c-3.02-.48-6.03-1.05-8.94-1.68l.95-3.03c2.83.61,5.77,1.16,8.71,1.63l-.73,3.07ZM194.04,202.03l-1.35-2.87c2.94-1.06,5.69-2.15,8.19-3.24l1.6,2.78c-2.57,1.13-5.41,2.25-8.43,3.34ZM89.69,206.63c-2.93-.78-5.83-1.66-8.63-2.6l1.38-2.91c2.72.92,5.54,1.77,8.39,2.53l-1.14,2.98ZM74.33,201.56c-2.78-1.11-5.52-2.31-8.14-3.57l1.82-2.73c2.54,1.23,5.2,2.39,7.89,3.47l-1.58,2.84ZM59.94,194.74c-2.55-1.43-5.06-2.96-7.45-4.55l2.26-2.48c2.31,1.54,4.74,3.02,7.21,4.4l-2.02,2.63ZM46.86,186.17c-2.28-1.75-4.49-3.59-6.56-5.48l2.67-2.16c2,1.83,4.13,3.61,6.34,5.29l-2.44,2.35ZM35.48,175.95c-1.95-2.07-3.78-4.2-5.43-6.35l3.04-1.76c1.59,2.07,3.35,4.12,5.23,6.11l-2.84,2ZM26.26,164.17c-1.73-2.77-3.05-5.41-3.71-7.42l3.5-.91c.59,1.78,1.84,4.27,3.42,6.81l-3.21,1.52Z"/>
    <path class="cls-2" d="M231.42,167.16c-1.28-1.19-3.14-1.5-4.73-.77l-30.78,13.95c-1.71.78-2.7,2.48-2.52,4.35.18,1.87,1.48,3.36,3.3,3.79l12,2.85c.11.03.2.11.23.22l3.71,11.77c.56,1.79,2.14,2.98,4.02,3.02h.06c1.85.02,3.46-1.08,4.1-2.82l11.71-31.7c.61-1.64.17-3.47-1.11-4.66ZM197.38,184.31c-.02-.23.12-.3.19-.32l26.44-11.98-14.26,15.48s-.07-.03-.11-.04l-12.01-2.85c-.07-.02-.22-.05-.25-.28ZM217.07,202.13c-.02.06-.09.24-.31.21-.23,0-.28-.16-.3-.23l-3.71-11.77c-.02-.06-.04-.11-.06-.16l14.68-15.94-10.3,27.89Z"/>
    <g>
      <path class="cls-2" d="M188.99,36.89c1.84,5.41,7.28,8.47,12.13,6.82l3.41-1.16c4.85-1.65,7.31-7.38,5.47-12.78l-5.86-17.27c-1.84-5.4-7.27-8.46-12.13-6.81l-3.4,1.14c-4.86,1.65-7.32,7.39-5.48,12.8l5.86,17.26ZM189.81,10.4l3.41-1.16c3.09-1.05,6.56.9,7.72,4.34l5.86,17.26c1.17,3.44-.4,7.1-3.48,8.15l-3.41,1.14c-3.09,1.05-6.55-.9-7.72-4.33l-5.86-17.27c-1.17-3.44.4-7.1,3.48-8.14Z"/>
      <path class="cls-2" d="M208.1,53.5l-1.73-5.11,4.58-1.56c4.8-1.63,7.2-7.38,5.35-12.83l-3.84-11.32-3.16,1.07,3.84,11.32c1.18,3.47-.35,7.13-3.41,8.17l-12.33,4.18c-3.06,1.04-6.5-.94-7.68-4.41l-3.84-11.32-3.16,1.07,3.84,11.32c1.85,5.44,7.26,8.55,12.06,6.92l4.58-1.56,1.73,5.11-5.23,1.77,1.22,3.58,13.61-4.62-1.22-3.58-5.23,1.77Z"/>
    </g>
    <rect class="cls-2" x="24.77" y="32.72" width="33.26" height="22.86" rx="6.24" ry="6.24" transform="translate(-15.26 22.85) rotate(-26.24)"/>
    <g>
      <path class="cls-1" d="M31.52,43.37l2.94-1.3c.71-.32,1.42-.54,2.13-.66.71-.13,1.38-.12,2.02.03.63.14,1.22.44,1.75.88.53.44.98,1.07,1.34,1.88.32.72.47,1.41.44,2.08-.03.67-.19,1.29-.49,1.87s-.7,1.1-1.22,1.56c-.52.46-1.11.84-1.77,1.13l-3.2,1.42-3.95-8.89ZM36.63,49.58l1.02-.45c.45-.2.85-.43,1.2-.7s.62-.57.81-.91c.19-.34.29-.72.3-1.14,0-.42-.1-.88-.32-1.38-.19-.44-.44-.78-.75-1.03-.31-.25-.64-.42-1.01-.5-.37-.09-.76-.1-1.18-.04-.42.06-.83.18-1.24.36l-1.15.51,2.34,5.27Z"/>
      <path class="cls-1" d="M41.23,39.06l6.04-2.68.8,1.81-4.08,1.81.74,1.66,3.85-1.71.8,1.81-3.85,1.71.8,1.81,4.31-1.91.8,1.81-6.26,2.78-3.95-8.89Z"/>
    </g>
  </g>
</svg>